<?xml version="1.0" encoding="iso-8859-1"?>
<!-- Uploaded to: SVG Repo, www.svgrepo.com, Generator: SVG Repo Mixer Tools -->
<svg fill="#000000" version="1.1" id="Layer_1" xmlns="http://www.w3.org/2000/svg" xmlns:xlink="http://www.w3.org/1999/xlink" 
	 viewBox="0 0 503.609 503.609" xml:space="preserve">
<g>
	<g>
		<g>
			<path d="M423.561,16.932c-3.475-1.502-7.521-0.487-9.888,2.468l-59.711,74.786c-0.193,0.243-0.218,0.554-0.386,0.814
				c-0.243,0.378-0.579,0.68-0.755,1.1l-52.719,122.133h-14.16V100.724h-67.148v117.508h-15.293L150.782,96.099
				c-0.176-0.42-0.512-0.722-0.755-1.1c-0.159-0.252-0.193-0.571-0.386-0.814L89.938,19.4c-2.359-2.954-6.404-3.987-9.896-2.468
				c-3.466,1.502-5.514,5.137-4.977,8.88l13.463,94.754c0.042,0.302,0.252,0.537,0.327,0.831c0.109,0.436,0.101,0.898,0.277,1.318
				l41.237,95.517h-20.69c-4.642,0-8.393,3.752-8.393,8.393v25.18h310.557v-25.18c0-4.642-3.76-8.393-8.393-8.393h-30.208
				l41.229-95.517c0.176-0.42,0.159-0.865,0.269-1.293c0.084-0.302,0.294-0.546,0.336-0.856l13.471-94.754
				C429.075,22.069,427.035,18.435,423.561,16.932z M103.603,107.321l-7.588-53.399l33.649,42.152L103.603,107.321z
				 M260.761,218.232h-16.787v-67.055c0-4.633,3.752-8.393,8.393-8.393c4.633,0,8.393,3.76,8.393,8.393V218.232z M400,107.321
				l-26.062-11.247l33.649-42.152L400,107.321z"/>
			<rect x="101.283" y="318.951" width="50.361" height="83.934"/>
			<path d="M101.283,302.164h58.754c4.633,0,8.393,3.76,8.393,8.393v100.721c0,4.633-3.76,8.393-8.393,8.393h-58.754v33.574h310.557
				v-33.574H302.726c-4.633,0-8.393-3.76-8.393-8.393V310.557c0-4.633,3.76-8.393,8.393-8.393h109.115V268.59H101.283V302.164z"/>
			<path d="M101.283,470.296c0,18.365,14.94,33.314,33.314,33.314h243.93c18.373,0,33.314-14.949,33.314-33.314v-0.26H101.283
				V470.296z"/>
			<path d="M311.12,402.885h100.721v-16.787H336.3c-4.633,0-8.393-3.76-8.393-8.393c0-4.633,3.76-8.393,8.393-8.393h75.541v-16.787
				H361.48c-4.633,0-8.393-3.76-8.393-8.393s3.76-8.393,8.393-8.393h50.361v-16.787H311.12V402.885z"/>
			<path d="M285.939,75.541c0-1.007-0.176-2.006-0.529-2.946L260.23,5.447C258.996,2.174,255.865,0,252.365,0
				s-6.631,2.174-7.865,5.447l-25.18,67.148c-0.353,0.94-0.529,1.939-0.529,2.946v8.393h67.148V75.541z"/>
		</g>
	</g>
</g>
</svg>