<?xml version="1.0" encoding="utf-8"?>
<!-- Generator: Adobe Illustrator 27.0.0, SVG Export Plug-In . SVG Version: 6.00 Build 0)  -->
<svg version="1.1" height="80" width="200" id="Layer_1" xmlns="http://www.w3.org/2000/svg" xmlns:xlink="http://www.w3.org/1999/xlink" x="0px" y="0px"
	 viewBox="0 0 1417.32 1417.32" style="enable-background:new 0 0 1417.32 1417.32;" xml:space="preserve">
<style type="text/css">
	.st0{fill:#FDBA58;}
	.st1{fill:#F47932;}
	.st2{fill:#D4D64D;}
	.st3{fill:#1EBEC8;}
	.st4{fill:#7477B8;}
	.st5{fill:#C7A0CB;}
	.st6{fill:#F6ADCD;}
	.st7{fill:#FFFFFF;}
	.st8{fill:#FAA755;}
	.st9{fill:#FAD5E5;}
	.st10{fill:#FEE7DC;}
	.st11{fill:#692E00;}
	.st12{fill:#FEDCBD;}
</style>
<g>
	<g>
		<g>
			<g>
				<path d="M220.92,1372.36c-9.71,1.32-14.56,1.99-24.26,3.37c-1.59-11.19-3.2-22.44-4.79-33.64c9.62-1.37,14.42-2.04,24.05-3.34
					c0.17,1.27,0.26,1.91,0.43,3.18c-8.25,1.12-12.37,1.69-20.62,2.86c0.68,4.82,1.02,7.24,1.7,12.06
					c7.85-1.11,11.77-1.65,19.62-2.72c0.17,1.25,0.26,1.88,0.43,3.13c-7.84,1.07-11.77,1.61-19.61,2.72
					c0.68,4.85,1.03,7.27,1.71,12.11c8.36-1.18,12.54-1.76,20.9-2.89C220.66,1370.46,220.74,1371.1,220.92,1372.36z"/>
			</g>
			<g>
				<path d="M253.96,1361.58c-0.64-4.46-0.96-6.69-1.6-11.15c-0.82-6.47-1.22-9.71-2.04-16.19c1.37-0.17,2.05-0.26,3.42-0.43
					c1.68,13.49,2.53,20.23,4.22,33.72c-0.81,0.1-1.22,0.15-2.03,0.25c-10.13-9.74-15.23-14.6-25.48-24.28
					c0.56,3.98,0.85,5.97,1.41,9.95c0.9,6.85,1.36,10.28,2.26,17.13c-1.35,0.18-2.03,0.27-3.39,0.45
					c-1.79-13.47-2.69-20.21-4.47-33.68c0.86-0.11,1.29-0.17,2.15-0.29C238.69,1346.85,243.8,1351.75,253.96,1361.58z"/>
			</g>
			<g>
				<path d="M289.98,1329.47c0.95,8.24,1.42,12.36,2.37,20.6c0.97,8.44-4.15,14.25-12.23,15.21c-7.94,0.94-14.39-3.54-15.4-11.83
					c1.36-0.17,2.04-0.25,3.4-0.42c0.76,6.26,5.47,9.8,11.62,9.07c6.15-0.73,9.97-5.08,9.21-11.64c-0.81-6.98-1.22-10.48-2.03-17.46
					c-5.02,0.58-7.53,0.88-12.55,1.48c-0.15-1.25-0.22-1.88-0.37-3.13C280.39,1330.58,283.59,1330.21,289.98,1329.47z"/>
			</g>
			<g>
				<path d="M335.74,1341.68c0.86,8.84-3.88,18-15.37,19.24c-11.53,1.24-18.16-6.7-19.16-15.57c-1.07-9.5,4.31-18.25,15.4-19.42
					C328.19,1324.71,334.86,1332.65,335.74,1341.68z M320.03,1357.74c9.27-1,13.02-8.48,12.3-15.7c-0.76-7.56-6.06-13.9-15.38-12.92
					c-9.17,0.96-13.31,7.96-12.33,15.9C305.54,1352.38,310.77,1358.73,320.03,1357.74z"/>
			</g>
			<g>
				<path d="M354.42,1339.71c3.75-7.19,5.63-10.79,9.42-17.98c1.61-0.15,2.41-0.23,4.02-0.38c0,0.04,0.01,0.06,0.01,0.1
					c-4.6,8.54-6.88,12.82-11.41,21.37c0.53,5.45,0.79,8.17,1.32,13.62c-1.36,0.13-2.04,0.2-3.39,0.33
					c-0.53-5.45-0.8-8.17-1.33-13.62c-6.03-7.53-9.06-11.28-15.14-18.78c0-0.04-0.01-0.06-0.01-0.1c1.58-0.16,2.38-0.24,3.96-0.4
					C346.9,1330.21,349.42,1333.37,354.42,1339.71z"/>
			</g>
			<g>
				<path d="M396.57,1322.01c-4.84,0.41-7.25,0.63-12.09,1.06c-0.11-1.28-0.17-1.92-0.28-3.19c9.7-0.86,17.93-1.56,27.63-2.35
					c0.1,1.28,0.16,1.92,0.26,3.2c-4.84,0.39-7.26,0.59-12.09,1c1.04,12.26,1.56,18.4,2.6,30.67c-1.36,0.12-2.04,0.17-3.4,0.29
					C398.15,1340.41,397.62,1334.27,396.57,1322.01z"/>
			</g>
			<g>
				<path d="M446.49,1348.94c-0.43-6-0.65-9.01-1.09-15.01c-8.27,0.6-12.41,0.91-20.68,1.56c0.47,6,0.7,9,1.17,15
					c-1.36,0.11-2.04,0.16-3.4,0.27c-1.07-13.55-1.61-20.33-2.68-33.88c1.37-0.11,2.06-0.16,3.43-0.27
					c0.49,6.27,0.74,9.41,1.23,15.68c8.28-0.65,12.42-0.96,20.7-1.56c-0.46-6.28-0.68-9.41-1.14-15.69c1.37-0.1,2.06-0.15,3.43-0.25
					c0.97,13.55,1.46,20.34,2.42,33.89C448.53,1348.79,447.85,1348.84,446.49,1348.94z"/>
			</g>
			<g>
				<path d="M486.12,1346.28c-9.76,0.6-14.64,0.92-24.4,1.58c-0.77-11.29-1.54-22.62-2.32-33.9c9.67-0.66,14.51-0.97,24.18-1.57
					c0.08,1.28,0.12,1.92,0.2,3.2c-8.29,0.51-12.44,0.78-20.73,1.34c0.33,4.86,0.49,7.29,0.82,12.15
					c7.89-0.53,11.84-0.79,19.73-1.28c0.08,1.26,0.12,1.89,0.19,3.15c-7.89,0.49-11.83,0.74-19.72,1.27
					c0.33,4.88,0.49,7.32,0.82,12.21c8.4-0.57,12.61-0.84,21.01-1.35C486.01,1344.37,486.05,1345,486.12,1346.28z"/>
			</g>
			<g>
				<path d="M532.46,1309.71c0.4,8.28,0.6,12.42,1,20.71c0.41,8.49-5.08,13.94-13.2,14.37c-7.97,0.42-14.1-4.49-14.57-12.83
					c1.37-0.08,2.05-0.11,3.42-0.19c0.35,6.3,4.8,10.14,10.98,9.82c6.18-0.32,10.27-4.41,9.95-11c-0.34-7.02-0.52-10.53-0.86-17.56
					c-5.04,0.25-7.56,0.38-12.6,0.64c-0.07-1.26-0.1-1.89-0.17-3.15C522.83,1310.18,526.04,1310.02,532.46,1309.71z"/>
			</g>
			<g>
				<path d="M577.25,1324.92c0.27,8.88-5.06,17.71-16.59,18.18c-11.57,0.47-17.66-7.89-18.06-16.81
					c-0.44-9.55,5.5-17.92,16.63-18.35C570.84,1307.48,576.97,1315.84,577.25,1324.92z M560.53,1339.9
					c9.3-0.38,13.54-7.6,13.29-14.85c-0.26-7.59-5.12-14.27-14.47-13.91c-9.2,0.35-13.79,7.05-13.34,15.05
					C546.45,1333.6,551.23,1340.28,560.53,1339.9z"/>
			</g>
			<g>
				<path d="M613.3,1306.7c0.22,8.29,0.33,12.43,0.54,20.72c0.24,9.17-5.68,13.74-13.07,13.96c-7.39,0.22-13.77-3.98-14.08-13.15
					c-0.28-8.29-0.42-12.43-0.7-20.72c1.38-0.05,2.06-0.07,3.44-0.11c0.27,8.29,0.41,12.43,0.68,20.72
					c0.21,6.45,4.77,10.29,10.56,10.11c5.16-0.15,9.94-3.64,9.75-10.72c-0.22-8.29-0.34-12.44-0.56-20.72
					C611.24,1306.76,611.93,1306.74,613.3,1306.7z"/>
			</g>
			<g>
				<path d="M653.6,1339.85c-1.77,0.03-2.66,0.04-4.43,0.07c-4.6-4.93-6.91-7.4-11.54-12.32c-3.53,0.07-5.3,0.11-8.84,0.18
					c0.11,5.01,0.17,7.51,0.28,12.52c-1.36,0.03-2.04,0.05-3.41,0.08c-0.31-13.59-0.47-20.39-0.78-33.97
					c5.16-0.12,10.27-0.23,15.43-0.32c7.66-0.14,11.43,4.85,11.56,10.58c0.13,5.29-2.92,10.14-10.14,10.61
					C646.5,1332.3,648.87,1334.81,653.6,1339.85z M628.39,1309.54c0.13,6.01,0.2,9.02,0.33,15.04c4.69-0.1,7.04-0.15,11.73-0.24
					c5.47-0.1,8.06-3.35,7.99-7.61c-0.07-4.28-2.78-7.53-8.08-7.43C635.58,1309.39,633.18,1309.44,628.39,1309.54z"/>
			</g>
			<g>
				<path d="M686.69,1333.08c-0.11-4.5-0.16-6.75-0.27-11.26c-0.04-6.53-0.06-9.79-0.1-16.31c1.38-0.01,2.06-0.01,3.44-0.02
					c0.08,13.59,0.11,20.38,0.18,33.98c-0.82,0-1.23,0.01-2.05,0.01c-8.88-10.88-13.36-16.31-22.38-27.13
					c0.09,4.02,0.13,6.03,0.22,10.04c0.08,6.91,0.12,10.37,0.21,17.28c-1.36,0.02-2.04,0.03-3.41,0.04
					c-0.18-13.59-0.26-20.39-0.44-33.98c0.86-0.01,1.3-0.02,2.16-0.03C673.31,1316.63,677.79,1322.11,686.69,1333.08z"/>
			</g>
			<g>
				<path d="M726.24,1339.46c-9.77-0.04-14.66-0.05-24.44-0.03c-0.02-11.31-0.04-22.67-0.07-33.98c9.69-0.02,14.53-0.02,24.22,0.03
					c-0.01,1.28-0.01,1.92-0.01,3.21c-8.31-0.04-12.46-0.04-20.76-0.03c0.01,4.87,0.01,7.31,0.01,12.18
					c7.91-0.01,11.86,0,19.77,0.03c-0.01,1.26-0.01,1.9-0.01,3.16c-7.9-0.03-11.85-0.04-19.75-0.03c0.01,4.89,0.01,7.34,0.01,12.23
					c8.42-0.01,12.63,0,21.05,0.04C726.25,1337.54,726.25,1338.18,726.24,1339.46z"/>
			</g>
			<g>
				<path d="M747.68,1322.63c4.49-6.75,6.75-10.12,11.28-16.86c1.61,0.02,2.42,0.03,4.03,0.06c0,0.04,0,0.06,0,0.1
					c-5.48,8-8.21,12-13.63,20.02c-0.06,5.47-0.09,8.21-0.15,13.69c-1.36-0.01-2.04-0.02-3.41-0.04c0.05-5.47,0.08-8.21,0.14-13.69
					c-5.18-8.13-7.78-12.19-13.02-20.3c0-0.04,0-0.06,0-0.1c1.59,0.01,2.39,0.02,3.98,0.03
					C741.24,1312.37,743.39,1315.79,747.68,1322.63z"/>
			</g>
			<g>
				<path d="M816.94,1324.1c-0.31,8.88-6.2,17.34-17.73,17.05c-11.58-0.29-17.1-9.03-16.93-17.95c0.19-9.56,6.66-17.52,17.79-17.22
					C811.69,1306.29,817.26,1315.03,816.94,1324.1z M799.29,1337.96c9.3,0.23,14.01-6.7,14.24-13.95
					c0.24-7.59-4.18-14.57-13.53-14.83c-9.2-0.25-14.23,6.14-14.29,14.14C785.65,1330.74,789.99,1337.73,799.29,1337.96z"/>
			</g>
			<g>
				<path d="M826.12,1341.29c0.43-13.59,0.66-20.38,1.09-33.96c9.41,0.3,14.11,0.47,23.52,0.83c-0.05,1.28-0.07,1.92-0.12,3.2
					c-8.02-0.31-12.04-0.45-20.06-0.72c-0.17,5.16-0.25,7.74-0.43,12.9c7.71,0.25,11.56,0.39,19.26,0.69
					c-0.05,1.28-0.07,1.92-0.12,3.2c-7.7-0.29-11.55-0.43-19.24-0.69c-0.19,5.86-0.29,8.79-0.48,14.65
					C828.16,1341.35,827.48,1341.33,826.12,1341.29z"/>
			</g>
			<g>
				<path d="M897.7,1344.29c-9.76-0.51-14.65-0.74-24.41-1.18c0.51-11.3,1.02-22.65,1.53-33.95c9.68,0.44,14.52,0.67,24.2,1.17
					c-0.07,1.28-0.1,1.92-0.16,3.2c-8.3-0.43-12.45-0.63-20.75-1.01c-0.22,4.87-0.33,7.3-0.56,12.17c7.9,0.36,11.85,0.56,19.75,0.96
					c-0.06,1.26-0.1,1.89-0.16,3.16c-7.89-0.41-11.84-0.6-19.73-0.96c-0.23,4.89-0.34,7.33-0.56,12.22
					c8.41,0.39,12.62,0.59,21.03,1.03C897.8,1342.37,897.77,1343.01,897.7,1344.29z"/>
			</g>
			<g>
				<path d="M931.18,1338.3c-7.91-0.48-11.87-0.71-19.78-1.15c-1.58,3.06-2.36,4.59-3.93,7.66c-1.44-0.08-2.16-0.12-3.6-0.19
					c6.83-13.25,10.28-19.87,17.22-33.08c1.37,0.08,2.06,0.12,3.43,0.2c5.37,13.93,8.02,20.9,13.28,34.85
					c-1.44-0.09-2.16-0.14-3.6-0.22C932.99,1343.14,932.39,1341.52,931.18,1338.3z M912.94,1334.12c6.83,0.38,10.24,0.58,17.07,0.99
					c-2.94-7.92-4.42-11.88-7.41-19.79C918.71,1322.83,916.78,1326.59,912.94,1334.12z"/>
			</g>
			<g>
				<path d="M973.84,1349.03c-1.77-0.13-2.65-0.19-4.42-0.32c-4.15-5.32-6.23-7.98-10.42-13.28c-3.53-0.24-5.29-0.36-8.82-0.59
					c-0.33,5-0.5,7.5-0.83,12.5c-1.36-0.09-2.04-0.14-3.41-0.22c0.88-13.57,1.33-20.35,2.21-33.91c5.15,0.34,10.25,0.68,15.4,1.03
					c7.65,0.53,10.97,5.84,10.6,11.56c-0.33,5.28-3.8,9.84-11.04,9.68C967.42,1340.89,969.57,1343.6,973.84,1349.03z
					 M951.38,1316.62c-0.39,6-0.59,9.01-0.99,15.01c4.68,0.31,7.03,0.47,11.71,0.79c5.47,0.38,8.33-2.62,8.64-6.88
					c0.3-4.27-2.11-7.74-7.4-8.11C958.55,1317.1,956.16,1316.94,951.38,1316.62z"/>
			</g>
			<g>
				<path d="M988.75,1316.07c-0.93,12.27-1.4,18.41-2.34,30.69c7.56,0.58,11.35,0.87,18.91,1.49c-0.1,1.28-0.16,1.91-0.26,3.19
					c-8.91-0.73-13.37-1.08-22.29-1.75c1.02-13.55,1.53-20.33,2.55-33.89C986.69,1315.91,987.38,1315.96,988.75,1316.07z"/>
			</g>
			<g>
				<path d="M1020.57,1335.68c4.99-6.4,7.49-9.59,12.51-15.97c1.61,0.14,2.41,0.21,4.02,0.36c0,0.04-0.01,0.06-0.01,0.1
					c-6.07,7.57-9.09,11.36-15.1,18.95c-0.47,5.45-0.7,8.18-1.17,13.64c-1.36-0.12-2.04-0.17-3.4-0.29
					c0.46-5.45,0.7-8.18,1.16-13.64c-4.56-8.49-6.85-12.74-11.48-21.22c0-0.04,0.01-0.06,0.01-0.1c1.59,0.13,2.38,0.19,3.97,0.32
					C1014.91,1324.97,1016.8,1328.54,1020.57,1335.68z"/>
			</g>
			<g>
				<path d="M1066.87,1339.93c5.07-6.33,7.62-9.49,12.72-15.81c1.6,0.16,2.41,0.24,4.01,0.41c0,0.04-0.01,0.06-0.01,0.1
					c-6.16,7.49-9.23,11.24-15.34,18.75c-0.54,5.45-0.81,8.17-1.34,13.62c-1.36-0.13-2.04-0.2-3.39-0.33
					c0.53-5.45,0.8-8.17,1.33-13.62c-4.45-8.55-6.69-12.83-11.21-21.36c0-0.04,0.01-0.06,0.01-0.1c1.58,0.15,2.38,0.22,3.96,0.38
					C1061.34,1329.15,1063.19,1332.74,1066.87,1339.93z"/>
			</g>
			<g>
				<path d="M1112.75,1361.82c-9.73-1.08-14.59-1.61-24.33-2.63c1.18-11.25,2.36-22.55,3.54-33.8c9.65,1.01,14.47,1.53,24.11,2.61
					c-0.14,1.27-0.21,1.91-0.35,3.19c-8.27-0.92-12.4-1.37-20.67-2.24c-0.51,4.85-0.77,7.27-1.28,12.11
					c7.88,0.83,11.81,1.26,19.68,2.13c-0.14,1.26-0.21,1.88-0.35,3.14c-7.86-0.87-11.8-1.3-19.66-2.13
					c-0.51,4.87-0.77,7.3-1.29,12.17c8.38,0.89,12.57,1.34,20.95,2.27C1112.96,1359.92,1112.89,1360.55,1112.75,1361.82z"/>
			</g>
			<g>
				<path d="M1146.56,1357.83c-7.88-0.95-11.82-1.42-19.7-2.32c-1.76,2.96-2.63,4.45-4.38,7.41c-1.43-0.16-2.15-0.25-3.59-0.41
					c7.61-12.82,11.46-19.22,19.17-32c1.37,0.16,2.05,0.24,3.42,0.4c4.55,14.22,6.78,21.34,11.21,35.58
					c-1.43-0.18-2.15-0.26-3.58-0.44C1148.09,1362.77,1147.58,1361.13,1146.56,1357.83z M1128.58,1352.58c6.8,0.79,10.2,1.19,17,2
					c-2.47-8.08-3.72-12.12-6.23-20.2C1135.02,1341.66,1132.87,1345.3,1128.58,1352.58z"/>
			</g>
			<g>
				<path d="M1188.57,1371.08c-1.76-0.23-2.64-0.35-4.4-0.58c-3.84-5.56-5.76-8.33-9.63-13.88c-3.51-0.45-5.27-0.67-8.78-1.12
					c-0.63,4.97-0.94,7.45-1.57,12.42c-1.36-0.17-2.04-0.26-3.39-0.43c1.69-13.49,2.54-20.23,4.21-33.72
					c5.13,0.64,10.21,1.29,15.34,1.95c7.62,0.98,10.62,6.48,9.92,12.17c-0.65,5.25-4.39,9.6-11.61,9.01
					C1182.64,1362.57,1184.62,1365.41,1188.57,1371.08z M1168.04,1337.4c-0.75,5.97-1.13,8.96-1.88,14.93
					c4.66,0.59,7,0.88,11.66,1.49c5.44,0.7,8.49-2.12,9.04-6.36c0.56-4.24-1.65-7.86-6.92-8.54
					C1175.18,1338.3,1172.8,1338,1168.04,1337.4z"/>
			</g>
			<g>
				<path d="M1222.36,1348.47c-1.55-3.46-5.61-5.13-9.19-5.65c-4.16-0.6-9.77-0.11-10.44,4.84c-0.54,3.95,3.7,5.6,8.87,7.24
					c6.54,2.08,13.14,4.57,12.1,11.7c-1.1,7.56-8.76,8.61-14.9,7.76c-5.7-0.79-11.22-3.65-13.11-9.38c1.27-0.48,1.9-0.71,3.17-1.19
					c1.74,4.64,6.28,6.78,10.38,7.35c4.16,0.58,10.24,0.28,11.03-5.08c0.67-4.53-4.28-6.44-9.45-8.08
					c-6.25-1.99-12.33-4.28-11.5-10.78c0.9-7.03,8.48-8.35,14.23-7.56c4.68,0.65,9.53,2.6,11.9,7.65
					C1224.22,1347.76,1223.6,1348,1222.36,1348.47z"/>
			</g>
		</g>
	</g>
	<g>
		<g>
			<g>
				<g>
					<path class="st0" d="M204.29,1254.13l86.46-11c9.46-1.2,18.29,5.63,19.49,15.09s-5.63,18.29-15.09,19.49l-103.75,13.2
						c-9.45,1.2-18.29-5.63-19.49-15.09l-17.6-138.33c-1.2-9.46,5.64-18.29,15.09-19.49l103.75-13.2
						c9.46-1.2,18.29,5.63,19.49,15.09c1.2,9.46-5.63,18.29-15.09,19.49l-86.46,11l4.4,34.58l69.17-8.8
						c9.46-1.2,18.29,5.63,19.49,15.09s-5.63,18.29-15.09,19.49l-69.17,8.8L204.29,1254.13z"/>
				</g>
			</g>
		</g>
		<g>
			<g>
				<g>
					<path class="st1" d="M468.9,1130.76c0.76-9.5,9.26-16.75,18.76-15.99c9.5,0.76,16.75,9.26,15.99,18.76l-11.07,139.01
						c-0.76,9.5-9.26,16.75-18.76,15.99c-4.34-0.35-8.83-2.34-11.81-6.13l-100.7-118.13l-7.74,97.2
						c-0.76,9.5-9.26,16.75-18.76,15.99c-9.5-0.76-16.75-9.26-15.99-18.76l11.07-139.01c0.76-9.5,9.26-16.75,18.76-15.99
						c4.61,0.37,8.81,2.61,11.81,6.13l100.7,118.13L468.9,1130.76z"/>
				</g>
			</g>
		</g>
		<g>
			<g>
				<g>
					<path class="st2" d="M537.17,1185.01c-9.54,0-17.43-7.9-17.43-17.43s7.89-17.43,17.43-17.43h52.29
						c9.53,0,17.43,7.9,17.43,17.43s-7.9,17.43-17.43,17.43H537.17z"/>
				</g>
			</g>
		</g>
		<g>
			<g>
				<g>
					<path class="st3" d="M612.52,1205.56c9.43-1.4,18.4,5.24,19.81,14.67c2.85,19.13,20.49,32.2,39.62,29.35
						s32.2-20.49,29.35-39.62l-12.84-86.2c-1.4-9.43,5.25-18.4,14.67-19.81c9.43-1.4,18.4,5.24,19.81,14.67l12.84,86.2
						c5.66,37.98-20.71,73.58-58.69,79.23c-37.98,5.66-73.58-20.71-79.23-58.69C596.44,1215.93,603.09,1206.96,612.52,1205.56z"/>
				</g>
			</g>
		</g>
		<g>
			<g>
				<g>
					<path class="st4" d="M835.6,1104.73c48.21,0,87.16,38.95,87.16,87.16s-38.95,87.16-87.16,87.16
						c-48.21,0-87.16-38.95-87.16-87.16S787.39,1104.73,835.6,1104.73z M835.6,1244.18c28.87,0,52.29-23.42,52.29-52.29
						s-23.42-52.29-52.29-52.29s-52.29,23.42-52.29,52.29S806.73,1244.18,835.6,1244.18z"/>
				</g>
			</g>
		</g>
		<g>
			<g>
				<g>
					<path class="st5" d="M975.85,1238.54l87.1-3.2c9.52-0.35,17.71,7.25,18.06,16.78c0.35,9.53-7.25,17.71-16.78,18.06
						l-104.52,3.84c-9.53,0.35-17.71-7.25-18.06-16.78l-5.12-139.35c-0.35-9.53,7.25-17.71,16.78-18.06l104.52-3.84
						c9.52-0.35,17.71,7.25,18.06,16.78c0.35,9.53-7.25,17.71-16.78,18.06l-87.1,3.2l1.28,34.84l69.68-2.56
						c9.52-0.35,17.71,7.25,18.06,16.78s-7.25,17.71-16.78,18.06l-69.68,2.56L975.85,1238.54z"/>
				</g>
			</g>
		</g>
		<g>
			<g>
				<g>
					<path class="st6" d="M1144.76,1257.89l6.41-62.31l-57.6-70.82c-2.92-3.58-4.37-8.12-3.89-12.72
						c0.95-9.21,9.91-16.5,19.12-15.56c4.61,0.47,8.75,2.82,11.66,6.4l51.28,63.05l63.05-51.28c3.58-2.92,8.12-4.37,12.72-3.89
						c9.21,0.95,16.5,9.91,15.56,19.12c-0.47,4.61-2.82,8.75-6.4,11.66l-70.82,57.6l-6.41,62.31c-0.98,9.48-9.64,16.53-19.12,15.56
						C1150.83,1276.04,1143.78,1267.38,1144.76,1257.89z"/>
				</g>
			</g>
		</g>
	</g>
	<g>
		<g>
			<path class="st6" d="M460.81,868.04l-163.4,137.73c-17.34,14.62-2.08,39.17,22.1,35.74c31-4.4,272.54-28.27,389.41-28.27
				c117.71,0,358.87,23.72,388.98,27.86c24.16,3.33,39.32-21.17,22.01-35.76l-162.88-137.3H460.81z"/>
		</g>
		<g>
			<path class="st7" d="M1097.9,1023.3c-0.24,0-0.49-0.02-0.74-0.05c-25.05-3.45-230.52-23.92-356.15-27.33
				c-2.98-0.08-5.32-2.56-5.25-5.54c0.08-2.98,2.71-5.29,5.54-5.25c126.01,3.42,332.18,23.97,357.33,27.43
				c2.95,0.41,5.01,3.12,4.6,6.08C1102.87,1021.35,1100.56,1023.3,1097.9,1023.3z"/>
		</g>
		<g>
			<path class="st7" d="M319.51,1023.71c-2.64,0-4.95-1.94-5.33-4.63c-0.42-2.95,1.63-5.68,4.58-6.1
				c31.39-4.45,234.48-24.4,357.35-27.82c0.05,0,0.1,0,0.15,0c2.91,0,5.3,2.32,5.39,5.25c0.08,2.98-2.26,5.46-5.25,5.54
				c-122.49,3.41-324.87,23.28-356.13,27.72C320.01,1023.69,319.76,1023.71,319.51,1023.71z"/>
		</g>
		<g>
			<g>
				<g>
					<path class="st8" d="M536.89,136.81c42.15,64,65.61,130.69,52.41,148.94c-13.2,18.26-60.02,44.35-82.11,30.02
						c-80.89-52.49-77.13-188.19-70.51-261.78C438.89,29.27,494.74,72.8,536.89,136.81z"/>
				</g>
			</g>
			<g>
				<g>
					<path d="M522.97,325.21c-6.99,0-13.41-1.48-18.72-4.92C443.48,280.87,418.94,191.1,431.3,53.5c0.77-8.6,6.44-10.93,8.84-11.53
						c20.59-5.18,69.9,44.26,101.25,91.87c37.99,57.68,69.21,131.63,52.27,155.07C581.97,305.09,548.72,325.21,522.97,325.21z
						 M443.54,52.35c-0.61,0-0.91,0.1-0.97,0.15c-0.08,0.07-0.41,0.61-0.53,1.97c-11.97,133.31,10.93,219.7,68.08,256.78
						c19.01,12.34,62.94-12.24,74.81-28.65c10.28-14.21-8.77-76.36-52.54-142.82c-31.44-47.75-71.28-84.31-87.38-87.27
						C444.4,52.39,443.91,52.35,443.54,52.35z"/>
				</g>
			</g>
		</g>
		<g>
			<g>
				<g>
					<path class="st9" d="M535.14,179.74c32.26,48.99,50.23,100.04,40.12,114.02c-10.11,13.98-45.95,33.95-62.86,22.98
						c-61.93-40.18-59.04-144.06-53.98-200.4C460.12,97.42,502.88,130.74,535.14,179.74z"/>
				</g>
			</g>
			<g>
				<g>
					<path d="M524.32,325.17c-5.54,0-10.65-1.17-14.86-3.9c-46.94-30.46-65.92-99.57-56.42-205.41c0.66-7.39,5.62-9.41,7.72-9.94
						c16.56-4.13,54.14,33.29,78.87,70.86c29.32,44.51,53.29,101.75,39.99,120.15C570.51,309.53,544.54,325.17,524.32,325.17z
						 M463.86,116.3c-0.03,0.13-0.05,0.3-0.07,0.51c-9.12,101.55,8.22,167.29,51.54,195.4c13.52,8.78,46.63-9.28,55.55-21.62
						c6.74-9.31-5.32-54.86-40.25-107.9l0,0c-28.33-43.02-59.1-66.4-66.6-66.4C463.98,116.3,463.92,116.3,463.86,116.3z"/>
				</g>
			</g>
		</g>
		<g>
			<g>
				<g>
					<path class="st8" d="M880.43,136.81c-42.15,64-65.61,130.69-52.41,148.94c13.2,18.26,60.02,44.35,82.11,30.02
						c80.89-52.49,77.13-188.19,70.51-261.78C978.43,29.27,922.58,72.8,880.43,136.81z"/>
				</g>
			</g>
			<g>
				<g>
					<path d="M894.35,325.21c-25.75,0-59-20.12-70.7-36.3c-16.94-23.43,14.29-97.38,52.28-155.07
						c31.34-47.61,80.72-97.09,101.25-91.87c2.4,0.6,8.07,2.94,8.84,11.53c12.37,137.6-12.18,227.36-72.95,266.79
						C907.77,323.73,901.34,325.21,894.35,325.21z M973.78,52.35c-0.37,0-0.86,0.04-1.48,0.15c-16.09,2.96-55.93,39.53-87.37,87.27
						c-43.77,66.46-62.82,128.61-52.54,142.82c11.87,16.42,55.8,40.99,74.81,28.65c57.15-37.08,80.06-123.47,68.08-256.78
						c-0.12-1.36-0.45-1.9-0.53-1.97C974.68,52.45,974.38,52.35,973.78,52.35z"/>
				</g>
			</g>
		</g>
		<g>
			<g>
				<g>
					<path class="st9" d="M882.18,179.74c-32.26,48.99-50.23,100.04-40.12,114.02c10.11,13.98,45.95,33.95,62.86,22.98
						c61.93-40.18,59.04-144.06,53.98-200.4C957.2,97.42,914.45,130.74,882.18,179.74z"/>
				</g>
			</g>
			<g>
				<g>
					<path d="M893,325.17c-20.22,0-46.18-15.64-55.31-28.25c-13.3-18.4,10.67-75.64,39.99-120.15
						c24.75-37.57,62.25-75.02,78.88-70.86c2.1,0.53,7.05,2.55,7.72,9.94c9.52,105.84-9.46,174.95-56.42,205.41
						C903.65,323.99,898.53,325.17,893,325.17z M953.29,116.3c-7.49,0-38.27,23.38-66.6,66.4c-34.93,53.04-46.98,98.59-40.25,107.9
						c8.92,12.33,41.99,30.4,55.55,21.62c43.33-28.11,60.67-93.85,51.54-195.4c-0.02-0.21-0.04-0.38-0.07-0.51
						C953.4,116.3,953.35,116.3,953.29,116.3z M953.92,116.37h0.05H953.92z"/>
				</g>
			</g>
		</g>
		<g>
			<g>
				<path class="st8" d="M978.71,890.11c75.98-63.67,123.4-153.92,123.4-254.03c0-192.95-176.15-349.37-393.45-349.37
					c-217.29,0-393.45,156.42-393.45,349.37c0,101.26,48.52,192.43,126.04,256.22"/>
			</g>
		</g>
		<g>
			<g>
				<path d="M441.25,897.7c-1.21,0-2.42-0.4-3.42-1.23c-81.35-66.93-128.01-161.84-128.01-260.39
					c0-195.62,178.92-354.77,398.84-354.77s398.84,159.15,398.84,354.77c0,98.75-44.51,190.43-125.33,258.16
					c-2.29,1.92-5.68,1.61-7.6-0.67c-1.91-2.29-1.61-5.69,0.67-7.6c78.33-65.64,121.47-154.39,121.47-249.9
					c0-189.67-174.08-343.98-388.05-343.98S320.61,446.42,320.61,636.09c0,95.31,45.23,187.18,124.08,252.06
					c2.3,1.9,2.63,5.29,0.74,7.59C444.35,897.03,442.81,897.7,441.25,897.7z"/>
			</g>
		</g>
		<g>
			<g>
				<ellipse class="st10" cx="708.86" cy="677.24" rx="294.15" ry="215.07"/>
			</g>
			<g>
				<path d="M708.86,897.7c-165.17,0-299.55-98.9-299.55-220.46s134.38-220.46,299.55-220.46s299.55,98.9,299.55,220.46
					S874.03,897.7,708.86,897.7z M708.86,467.56c-159.22,0-288.76,94.06-288.76,209.68s129.54,209.68,288.76,209.68
					s288.76-94.06,288.76-209.68S868.09,467.56,708.86,467.56z"/>
			</g>
		</g>
		<g>
			<g>
				<path class="st11" d="M513.75,633.93l-17.42,18.63l-43.21,16.14h-38.19c6.13-114.82,135.38-206.53,293.93-206.53
					c158.53,0,287.78,91.7,293.93,206.51l-48.34,0.02l-35.31-17.54l-15.83-15.41"/>
			</g>
			<g>
				<path d="M414.94,674.09c-1.15,0-2.29-0.37-3.23-1.08c-1.44-1.08-2.25-2.81-2.15-4.6c6.34-118.67,137.81-211.63,299.31-211.63
					c161.48,0,292.96,92.95,299.31,211.61c0.09,1.78-0.7,3.49-2.11,4.57c-1.42,1.08-3.29,1.39-4.97,0.83l-4.32-12.79
					c-11.42-109.1-135.84-193.44-287.91-193.44c-152.02,0-276.38,84.26-287.89,193.29l-4.24,12.93
					C416.14,673.99,415.54,674.09,414.94,674.09z"/>
			</g>
		</g>
		<g>
			<g>
				<ellipse class="st11" cx="545.65" cy="633.93" rx="42.27" ry="10.4"/>
			</g>
		</g>
		<g>
			<g>
				<ellipse class="st11" cx="639.81" cy="633.93" rx="51.88" ry="10.4"/>
			</g>
		</g>
		<g>
			<g>
				<ellipse class="st11" cx="874.01" cy="633.93" rx="42.06" ry="10.4"/>
			</g>
		</g>
		<g>
			<g>
				<ellipse class="st11" cx="761.82" cy="633.93" rx="70.13" ry="10.4"/>
			</g>
		</g>
		<g>
			<g>
				<path d="M435.27,675.83c-6.81,0-13.81-0.6-20.82-1.8c-2.93-0.5-4.91-3.29-4.41-6.22c0.5-2.93,3.3-4.91,6.22-4.41
					c6.4,1.09,12.8,1.64,19.01,1.64c47.17,0,85.56-28.71,85.56-63.99c0-2.98,2.41-5.39,5.39-5.39c2.98,0,5.39,2.41,5.39,5.39
					C531.62,642.29,488.4,675.83,435.27,675.83z"/>
			</g>
		</g>
		<g>
			<g>
				<path d="M982.05,675.83c-53.12,0-96.34-33.54-96.34-74.78c0-2.98,2.41-5.39,5.39-5.39c2.98,0,5.39,2.41,5.39,5.39
					c0,35.28,38.38,63.99,85.56,63.99c6.21,0,12.61-0.55,19.01-1.64c2.93-0.5,5.72,1.48,6.22,4.41c0.5,2.94-1.47,5.72-4.41,6.22
					C995.87,675.23,988.87,675.83,982.05,675.83z"/>
			</g>
		</g>
		<g>
			<g>
				<path d="M688.48,641.78c-1.63,0-3.23-0.73-4.29-2.12c-1.81-2.37-1.35-5.75,1.02-7.56l28.69-21.88c2.36-1.81,5.76-1.35,7.56,1.02
					c1.81,2.37,1.35,5.75-1.02,7.56l-28.69,21.88C690.77,641.42,689.61,641.78,688.48,641.78z"/>
			</g>
		</g>
		<g>
			<g>
				<path d="M585.38,641.78c-1.63,0-3.23-0.73-4.29-2.12c-1.81-2.37-1.35-5.75,1.02-7.56l28.69-21.88c2.37-1.81,5.76-1.35,7.56,1.02
					c1.81,2.37,1.35,5.75-1.02,7.56l-28.69,21.88C587.67,641.42,586.52,641.78,585.38,641.78z"/>
			</g>
		</g>
		<g>
			<g>
				<path d="M831.94,641.78c-1.14,0-2.29-0.36-3.27-1.11l-28.69-21.88c-2.37-1.81-2.82-5.19-1.02-7.56c1.8-2.36,5.19-2.83,7.56-1.02
					l28.69,21.88c2.37,1.81,2.82,5.19,1.02,7.56C835.17,641.05,833.57,641.78,831.94,641.78z"/>
			</g>
		</g>
		<path d="M644.31,362.73c-10.8,0-19.26-12.37-19.26-28.16c0-2.98,2.41-5.39,5.39-5.39s5.39,2.41,5.39,5.39
			c0,9.78,4.56,17.38,8.48,17.38s8.48-7.59,8.48-17.38c0-2.98,2.41-5.39,5.39-5.39c2.98,0,5.39,2.41,5.39,5.39
			C663.57,350.36,655.11,362.73,644.31,362.73z"/>
		<path d="M773.01,362.73c-10.8,0-19.26-12.37-19.26-28.16c0-2.98,2.41-5.39,5.39-5.39c2.98,0,5.39,2.41,5.39,5.39
			c0,9.78,4.56,17.38,8.47,17.38c3.92,0,8.48-7.59,8.48-17.38c0-2.98,2.41-5.39,5.39-5.39c2.98,0,5.39,2.41,5.39,5.39
			C792.28,350.36,783.82,362.73,773.01,362.73z"/>
		<ellipse cx="708.66" cy="354.29" rx="14.68" ry="8.51"/>
		<path d="M708.66,393.25c-23.7,0-33.31-7.73-43.41-17.82c-2.11-2.1-2.11-5.52,0-7.63c2.11-2.11,5.52-2.11,7.63,0
			c8.86,8.86,16.14,14.66,35.79,14.66s26.93-5.81,35.79-14.66c2.11-2.11,5.52-2.11,7.63,0c2.11,2.11,2.11,5.52,0,7.63
			C741.97,385.52,732.36,393.25,708.66,393.25z"/>
		<path d="M708.66,393.25c-2.98,0-5.39-2.41-5.39-5.39V362.8c0-2.98,2.41-5.39,5.39-5.39c2.98,0,5.39,2.41,5.39,5.39v25.05
			C714.05,390.83,711.64,393.25,708.66,393.25z"/>
		<g>
			<g>
				<g>
					<path class="st8" d="M760.58,855.49v81.3l244.55,14.51c17.55,1.04,32.35-12.91,32.35-30.48v0c0-44.35-37.34-79.54-81.61-76.91
						L760.58,855.49z"/>
				</g>
			</g>
			<g>
				<g>
					<path d="M1007,956.75c-0.73,0-1.46-0.02-2.2-0.07l-244.54-14.51c-2.85-0.17-5.07-2.53-5.07-5.38v-81.3
						c0-2.85,2.22-5.21,5.07-5.38l195.28-11.59c22.97-1.37,44.72,6.56,61.43,22.3c16.7,15.74,25.9,37.05,25.9,60
						c0,10-4.01,19.29-11.29,26.15C1024.83,953.32,1016.18,956.75,1007,956.75z M765.97,931.71l239.47,14.21
						c6.91,0.41,13.64-2,18.73-6.8c5.09-4.8,7.9-11.3,7.9-18.3c0-19.95-7.99-38.47-22.51-52.15
						c-14.51-13.68-33.47-20.53-53.38-19.38l-190.21,11.29V931.71z"/>
				</g>
			</g>
		</g>
		<g>
			<g>
				<path class="st12" d="M748.23,855.86c-21.77,0.66-39.08,18.49-39.08,40.28s17.31,39.62,39.08,40.28l12.35,0.37v-81.3
					L748.23,855.86z"/>
			</g>
			<g>
				<path d="M760.58,942.18c-0.05,0-0.11,0-0.16,0l-12.35-0.37c-24.85-0.75-44.31-20.81-44.31-45.67
					c0-24.86,19.46-44.91,44.31-45.67l12.35-0.37c1.44-0.01,2.88,0.51,3.92,1.52c1.05,1.02,1.64,2.41,1.64,3.87v81.3
					c0,1.46-0.59,2.85-1.64,3.87C763.33,941.64,761.98,942.18,760.58,942.18z M748.39,861.26c-18.98,0.57-33.85,15.89-33.85,34.88
					c0,19,14.87,34.31,33.85,34.88l6.79,0.21v-70.19L748.39,861.26L748.39,861.26z M748.23,855.86h0.05H748.23z"/>
			</g>
		</g>
		<g>
			<g>
				<g>
					<path class="st8" d="M656.74,936.79v-81.3l-195.3-11.59c-44.26-2.63-81.6,32.56-81.6,76.9v0c0,17.58,14.81,31.54,32.36,30.5
						L656.74,936.79z"/>
				</g>
			</g>
			<g>
				<g>
					<path d="M410.33,956.75c-9.18,0-17.84-3.43-24.58-9.79c-7.28-6.86-11.29-16.15-11.29-26.16c0-22.95,9.19-44.25,25.9-59.99
						c16.7-15.74,38.51-23.65,61.41-22.29l195.3,11.59c2.85,0.17,5.07,2.53,5.07,5.38v81.3c0,2.85-2.22,5.21-5.07,5.38
						l-244.53,14.51C411.8,956.73,411.06,956.75,410.33,956.75z M456.75,849.16c-18.29,0-35.55,6.84-48.99,19.51
						c-14.51,13.68-22.51,32.19-22.51,52.14c0,7,2.81,13.51,7.9,18.31c5.1,4.8,11.76,7.23,18.74,6.8l239.46-14.21v-71.14
						l-190.23-11.29C459.66,849.2,458.2,849.16,456.75,849.16z M656.75,936.79h0.05H656.75z"/>
				</g>
			</g>
		</g>
		<g>
			<g>
				<path class="st12" d="M669.09,936.42c21.77-0.66,39.08-18.49,39.08-40.28s-17.31-39.62-39.08-40.28l-12.35-0.37v81.3
					L669.09,936.42z"/>
			</g>
			<g>
				<path d="M656.75,942.18c-1.4,0-2.75-0.54-3.75-1.52c-1.05-1.02-1.64-2.41-1.64-3.87v-81.3c0-1.46,0.59-2.85,1.64-3.87
					c1.04-1.02,2.47-1.53,3.92-1.52l12.34,0.37c24.85,0.75,44.31,20.81,44.31,45.67c0,24.86-19.46,44.92-44.31,45.67l-12.34,0.37
					C656.86,942.18,656.8,942.18,656.75,942.18z M662.14,861.05v70.19l6.79-0.21l0,0c18.98-0.57,33.85-15.89,33.85-34.88
					c0-18.99-14.87-34.31-33.85-34.88L662.14,861.05z"/>
			</g>
		</g>
		<circle cx="644.31" cy="722.32" r="13.87"/>
		<circle cx="773.02" cy="722.32" r="13.87"/>
		<path d="M708.66,752.94c-19.7,0-27.68-6.42-36.07-14.81c-2.11-2.11-2.11-5.52,0-7.63c2.11-2.11,5.52-2.11,7.63,0
			c7.25,7.25,12.79,11.65,28.45,11.65c16.05,0,20.8-4,28.45-11.65c2.11-2.11,5.52-2.1,7.63,0c2.11,2.11,2.11,5.52,0,7.63
			C735.79,747.07,728.45,752.94,708.66,752.94z"/>
	</g>
</g>
</svg>
