<?xml version="1.0" encoding="utf-8"?>
<!-- Generator: Adobe Illustrator 27.0.0, SVG Export Plug-In . SVG Version: 6.00 Build 0)  -->
<svg version="1.1" id="Layer_1" xmlns="http://www.w3.org/2000/svg" xmlns:xlink="http://www.w3.org/1999/xlink" x="0px" y="0px"
	 viewBox="0 0 1417.32 1417.32" width="70" height="70" style="enable-background:new 0 0 1417.32 1417.32;" xml:space="preserve">
<style type="text/css">
	.st0{fill:#FDBA58;}
	.st1{fill:#F47932;}
	.st2{fill:#D4D64D;}
	.st3{fill:#1EBEC8;}
	.st4{fill:#7477B8;}
	.st5{fill:#C7A0CB;}
	.st6{fill:#F6ADCD;}
	.st7{fill:#FFFFFF;}
	.st8{fill:#FAA755;}
	.st9{fill:#FAD5E5;}
	.st10{fill:#FEE7DC;}
	.st11{fill:#692E00;}
	.st12{fill:#FEDCBD;}
</style>
<g>
	<g>
		<path class="st6" d="M407.56,1105.1l-198.5,167.32c-21.07,17.76-2.53,47.59,26.85,43.42c37.66-5.35,331.09-34.35,473.07-34.35
			c143,0,435.97,28.81,472.55,33.84c29.34,4.04,47.76-25.72,26.74-43.44l-197.88-166.8H407.56z"/>
	</g>
	<g>
		<path class="st7" d="M1181.53,1293.71c-0.29,0-0.59-0.02-0.9-0.06c-30.43-4.19-280.04-29.06-432.67-33.2
			c-3.61-0.1-6.47-3.11-6.37-6.73s3.29-6.43,6.73-6.37c153.08,4.15,403.55,29.12,434.1,33.33c3.58,0.49,6.09,3.79,5.59,7.38
			C1187.56,1291.34,1184.75,1293.71,1181.53,1293.71z"/>
	</g>
	<g>
		<path class="st7" d="M235.9,1294.21c-3.21,0-6.01-2.36-6.48-5.63c-0.51-3.58,1.98-6.9,5.57-7.41
			c38.13-5.41,284.86-29.64,434.12-33.8c0.06,0,0.12,0,0.19,0c3.53,0,6.44,2.81,6.54,6.37c0.1,3.61-2.75,6.63-6.37,6.73
			c-148.8,4.14-394.66,28.28-432.64,33.67C236.52,1294.19,236.21,1294.21,235.9,1294.21z"/>
	</g>
	<g>
		<g>
			<g>
				<path class="st8" d="M499.99,216.76c51.2,77.75,79.7,158.76,63.67,180.94c-16.04,22.18-72.92,53.87-99.75,36.47
					c-98.27-63.76-93.7-228.62-85.66-318.03C380.94,86.13,448.79,139.01,499.99,216.76z"/>
			</g>
		</g>
		<g>
			<g>
				<path d="M483.07,445.65c-8.49,0-16.29-1.8-22.74-5.98c-73.82-47.9-103.64-156.94-88.63-324.11
					c0.94-10.44,7.82-13.28,10.74-14.01c25.01-6.3,84.92,53.77,123.01,111.61c46.15,70.08,84.08,159.92,63.5,188.38
					C554.75,421.2,514.36,445.65,483.07,445.65z M386.58,114.16c-0.74,0-1.1,0.12-1.18,0.18c-0.1,0.09-0.5,0.74-0.65,2.39
					c-14.54,161.95,13.28,266.9,82.7,311.95c23.1,14.99,76.46-14.86,90.88-34.81c12.49-17.26-10.66-92.77-63.82-173.5
					c-38.2-58-86.6-102.43-106.15-106.02C387.62,114.21,387.03,114.16,386.58,114.16z"/>
			</g>
		</g>
	</g>
	<g>
		<g>
			<g>
				<path class="st9" d="M497.86,268.92c39.2,59.52,61.02,121.54,48.74,138.52c-12.28,16.98-55.82,41.24-76.36,27.92
					c-75.23-48.81-71.73-175.01-65.58-243.46C406.72,168.91,458.66,209.4,497.86,268.92z"/>
			</g>
		</g>
		<g>
			<g>
				<path d="M484.72,445.59c-6.73,0-12.94-1.42-18.05-4.74c-57.03-37-80.09-120.96-68.54-249.54c0.81-8.98,6.83-11.44,9.38-12.08
					c20.12-5.02,65.77,40.44,95.82,86.09c35.62,54.08,64.74,123.61,48.58,145.96C540.82,426.6,509.28,445.59,484.72,445.59z
					 M411.27,191.86c-0.03,0.16-0.06,0.36-0.08,0.62c-11.08,123.37,9.99,203.23,62.61,237.38c16.43,10.67,56.65-11.27,67.49-26.26
					c8.18-11.31-6.46-66.64-48.9-131.08l0,0c-34.41-52.27-71.8-80.67-80.91-80.67C411.41,191.85,411.34,191.85,411.27,191.86z"/>
			</g>
		</g>
	</g>
	<g>
		<g>
			<g>
				<path class="st8" d="M917.34,216.76c-51.2,77.75-79.7,158.76-63.67,180.94s72.92,53.87,99.75,36.47
					c98.27-63.76,93.7-228.62,85.66-318.03C1036.39,86.13,968.54,139.01,917.34,216.76z"/>
			</g>
		</g>
		<g>
			<g>
				<path d="M934.25,445.64c-31.28,0-71.68-24.45-85.89-44.1c-20.58-28.47,17.36-118.31,63.51-188.38
					c38.08-57.84,98.06-117.95,123-111.61c2.92,0.73,9.8,3.57,10.74,14.01c15.02,167.16-14.8,276.21-88.63,324.11
					C950.55,443.85,942.73,445.64,934.25,445.64z M1030.74,114.16c-0.45,0-1.04,0.04-1.8,0.19c-19.54,3.6-67.94,48.02-106.14,106.02
					c-53.17,80.74-76.31,156.24-63.83,173.5c14.42,19.94,67.79,49.8,90.88,34.81c69.43-45.05,97.26-150,82.7-311.95
					c-0.15-1.65-0.54-2.3-0.65-2.39C1031.84,114.28,1031.47,114.16,1030.74,114.16z"/>
			</g>
		</g>
	</g>
	<g>
		<g>
			<g>
				<path class="st9" d="M919.46,268.92c-39.2,59.52-61.02,121.54-48.74,138.52c12.28,16.98,55.82,41.24,76.36,27.92
					c75.23-48.81,71.73-175.01,65.58-243.46C1010.6,168.91,958.66,209.4,919.46,268.92z"/>
			</g>
		</g>
		<g>
			<g>
				<path d="M932.6,445.59c-24.56,0-56.11-18.99-67.19-34.32c-16.16-22.35,12.96-91.89,48.58-145.96
					c30.06-45.65,75.62-91.13,95.82-86.09c2.55,0.64,8.57,3.1,9.37,12.08c11.56,128.58-11.5,212.53-68.54,249.54
					C945.54,444.16,939.33,445.59,932.6,445.59z M1005.84,191.85c-9.1,0-46.49,28.4-80.91,80.67
					c-42.43,64.43-57.07,119.77-48.9,131.08c10.84,14.98,51.01,36.93,67.49,26.26c52.64-34.15,73.71-114.02,62.61-237.38
					c-0.03-0.26-0.05-0.46-0.08-0.62C1005.98,191.85,1005.91,191.85,1005.84,191.85z M1006.62,191.94h0.06H1006.62z"/>
			</g>
		</g>
	</g>
	<g>
		<g>
			<path class="st8" d="M1036.73,1131.91c92.3-77.35,149.91-186.99,149.91-308.6c0-234.41-214-424.43-477.98-424.43
				c-263.98,0-477.98,190.02-477.98,424.43c0,123.02,58.94,233.78,153.12,311.27"/>
		</g>
	</g>
	<g>
		<g>
			<path d="M383.8,1141.13c-1.47,0-2.94-0.49-4.16-1.49c-98.82-81.31-155.51-196.61-155.51-316.33
				c0-237.64,217.36-430.98,484.52-430.98s484.52,193.34,484.52,430.98c0,119.97-54.07,231.35-152.25,313.63
				c-2.78,2.34-6.9,1.95-9.23-0.81c-2.32-2.78-1.96-6.91,0.81-9.23c95.16-79.75,147.57-187.56,147.57-303.58
				c0-230.42-211.48-417.88-471.42-417.88S237.24,592.89,237.24,823.31c0,115.78,54.94,227.39,150.73,306.21
				c2.79,2.3,3.19,6.43,0.9,9.23C387.57,1140.32,385.7,1141.13,383.8,1141.13z"/>
		</g>
	</g>
	<g>
		<g>
			<ellipse class="st10" cx="708.9" cy="873.3" rx="357.35" ry="261.27"/>
		</g>
		<g>
			<path d="M708.9,1141.13c-200.66,0-363.9-120.14-363.9-267.82s163.25-267.82,363.9-267.82s363.9,120.14,363.9,267.82
				S909.56,1141.13,708.9,1141.13z M708.9,618.58c-193.43,0-350.8,114.27-350.8,254.72s157.37,254.72,350.8,254.72
				s350.8-114.27,350.8-254.72S902.34,618.58,708.9,618.58z"/>
		</g>
	</g>
	<g>
		<g>
			<path class="st11" d="M471.88,820.69l-21.16,22.63l-52.49,19.61h-46.39c7.45-139.49,164.47-250.9,357.07-250.9
				c192.59,0,349.6,111.4,357.07,250.87l-58.73,0.03l-42.9-21.3l-19.23-18.72"/>
		</g>
		<g>
			<path d="M351.83,869.48c-1.39,0-2.78-0.45-3.93-1.31c-1.75-1.31-2.73-3.41-2.62-5.59c7.7-144.17,167.42-257.1,363.62-257.1
				c196.18,0,355.89,112.92,363.62,257.07c0.12,2.16-0.84,4.24-2.57,5.56c-1.72,1.31-3.99,1.69-6.04,1.01l-5.25-15.54
				c-13.87-132.54-165.02-235-349.77-235c-184.67,0-335.76,102.36-349.75,234.82l-5.15,15.7
				C353.3,869.36,352.56,869.48,351.83,869.48z"/>
		</g>
	</g>
	<g>
		<g>
			<ellipse class="st11" cx="510.63" cy="820.69" rx="51.35" ry="12.64"/>
		</g>
	</g>
	<g>
		<g>
			<ellipse class="st11" cx="625.02" cy="820.69" rx="63.03" ry="12.64"/>
		</g>
	</g>
	<g>
		<g>
			<ellipse class="st11" cx="909.53" cy="820.69" rx="51.1" ry="12.64"/>
		</g>
	</g>
	<g>
		<g>
			<ellipse class="st11" cx="773.24" cy="820.69" rx="85.19" ry="12.64"/>
		</g>
	</g>
	<g>
		<g>
			<path d="M376.54,871.6c-8.28,0-16.78-0.73-25.29-2.18c-3.56-0.61-5.96-3.99-5.35-7.56c0.61-3.56,4-5.97,7.56-5.36
				c7.78,1.32,15.55,2,23.09,2c57.31,0,103.94-34.87,103.94-77.74c0-3.62,2.93-6.55,6.55-6.55s6.55,2.93,6.55,6.55
				C493.58,830.85,441.07,871.6,376.54,871.6z"/>
		</g>
	</g>
	<g>
		<g>
			<path d="M1040.78,871.6c-64.53,0-117.04-40.75-117.04-90.84c0-3.62,2.93-6.55,6.55-6.55c3.62,0,6.55,2.93,6.55,6.55
				c0,42.86,46.63,77.74,103.94,77.74c7.55,0,15.32-0.67,23.09-2c3.56-0.6,6.95,1.79,7.56,5.36c0.61,3.57-1.79,6.95-5.35,7.56
				C1057.57,870.86,1049.07,871.6,1040.78,871.6z"/>
		</g>
	</g>
	<g>
		<g>
			<path d="M684.14,830.23c-1.98,0-3.93-0.89-5.21-2.58c-2.19-2.88-1.64-6.99,1.23-9.18l34.85-26.59c2.87-2.2,7-1.64,9.18,1.23
				c2.19,2.88,1.64,6.99-1.23,9.18l-34.85,26.59C686.92,829.79,685.52,830.23,684.14,830.23z"/>
		</g>
	</g>
	<g>
		<g>
			<path d="M558.9,830.23c-1.98,0-3.93-0.89-5.21-2.58c-2.19-2.88-1.64-6.99,1.23-9.18l34.85-26.59c2.88-2.2,7-1.64,9.18,1.23
				c2.19,2.88,1.64,6.99-1.23,9.18l-34.85,26.59C561.68,829.79,560.28,830.23,558.9,830.23z"/>
		</g>
	</g>
	<g>
		<g>
			<path d="M858.42,830.23c-1.38,0-2.78-0.44-3.97-1.34l-34.85-26.59c-2.88-2.19-3.43-6.3-1.23-9.18c2.19-2.87,6.3-3.43,9.18-1.23
				l34.85,26.59c2.88,2.19,3.43,6.3,1.23,9.18C862.35,829.34,860.4,830.23,858.42,830.23z"/>
		</g>
	</g>
	<path d="M630.48,491.23c-13.12,0-23.4-15.03-23.4-34.21c0-3.62,2.93-6.55,6.55-6.55c3.62,0,6.55,2.93,6.55,6.55
		c0,11.89,5.53,21.11,10.3,21.11s10.3-9.22,10.3-21.11c0-3.62,2.93-6.55,6.55-6.55s6.55,2.93,6.55,6.55
		C653.88,476.2,643.6,491.23,630.48,491.23z"/>
	<path d="M786.84,491.23c-13.12,0-23.4-15.03-23.4-34.21c0-3.62,2.93-6.55,6.55-6.55c3.62,0,6.55,2.93,6.55,6.55
		c0,11.89,5.53,21.11,10.29,21.11c4.77,0,10.3-9.22,10.3-21.11c0-3.62,2.93-6.55,6.55-6.55c3.62,0,6.55,2.93,6.55,6.55
		C810.24,476.2,799.96,491.23,786.84,491.23z"/>
	<ellipse cx="708.66" cy="480.97" rx="17.84" ry="10.34"/>
	<path d="M708.66,528.3c-28.8,0-40.47-9.39-52.74-21.65c-2.56-2.56-2.56-6.7,0-9.26c2.56-2.56,6.7-2.56,9.26,0
		c10.77,10.76,19.61,17.81,43.48,17.81s32.71-7.05,43.48-17.81c2.56-2.56,6.7-2.56,9.26,0c2.56,2.56,2.56,6.71,0,9.26
		C749.13,518.91,737.46,528.3,708.66,528.3z"/>
	<path d="M708.66,528.3c-3.62,0-6.55-2.93-6.55-6.55v-30.43c0-3.62,2.93-6.55,6.55-6.55c3.62,0,6.55,2.93,6.55,6.55v30.43
		C715.21,525.36,712.28,528.3,708.66,528.3z"/>
	<g>
		<g>
			<g>
				<path class="st8" d="M771.73,1089.85v98.76l297.08,17.63c21.31,1.26,39.29-15.68,39.29-37.03v0c0-53.87-45.36-96.63-99.14-93.44
					L771.73,1089.85z"/>
			</g>
		</g>
		<g>
			<g>
				<path d="M1071.1,1212.86c-0.88,0-1.78-0.03-2.67-0.08l-297.08-17.63c-3.46-0.2-6.16-3.07-6.16-6.54v-98.77
					c0-3.47,2.7-6.33,6.16-6.54l237.23-14.07c27.9-1.67,54.33,7.97,74.62,27.09c20.29,19.12,31.46,45.01,31.46,72.89
					c0,12.15-4.87,23.43-13.72,31.76C1092.76,1208.69,1082.24,1212.86,1071.1,1212.86z M778.29,1182.44l290.92,17.26
					c8.4,0.49,16.57-2.43,22.76-8.26c6.19-5.83,9.6-13.73,9.6-22.23c0-24.23-9.71-46.73-27.35-63.36
					c-17.63-16.61-40.66-24.94-64.85-23.54l-231.07,13.71V1182.44z"/>
			</g>
		</g>
	</g>
	<g>
		<g>
			<path class="st12" d="M756.73,1090.3c-26.45,0.8-47.48,22.47-47.48,48.93s21.03,48.13,47.48,48.93l15,0.45v-98.76L756.73,1090.3z
				"/>
		</g>
		<g>
			<path d="M771.73,1195.17c-0.06,0-0.13,0-0.2,0l-15-0.45c-30.18-0.91-53.83-25.28-53.83-55.48c0-30.2,23.65-54.56,53.83-55.48
				l15-0.45c1.75-0.01,3.49,0.61,4.76,1.85c1.27,1.23,1.99,2.93,1.99,4.7v98.77c0,1.77-0.72,3.47-1.99,4.7
				C775.07,1194.51,773.44,1195.17,771.73,1195.17z M756.93,1096.86c-23.06,0.7-41.12,19.31-41.12,42.38
				c0,23.08,18.06,41.69,41.12,42.38l8.25,0.26v-85.27L756.93,1096.86L756.93,1096.86z M756.73,1090.3h0.06H756.73z"/>
		</g>
	</g>
	<g>
		<g>
			<g>
				<path class="st8" d="M645.59,1188.62v-98.76l-237.25-14.08c-53.77-3.19-99.13,39.55-99.13,93.42v0
					c0,21.36,17.99,38.32,39.31,37.05L645.59,1188.62z"/>
			</g>
		</g>
		<g>
			<g>
				<path d="M346.24,1212.86c-11.15,0-21.67-4.17-29.86-11.89c-8.84-8.34-13.72-19.62-13.72-31.78c0-27.87,11.17-53.75,31.46-72.88
					c20.29-19.12,46.78-28.73,74.6-27.08l237.26,14.07c3.46,0.2,6.16,3.07,6.16,6.54v98.77c0,3.47-2.7,6.33-6.16,6.54l-297.07,17.63
					C348.02,1212.84,347.12,1212.86,346.24,1212.86z M402.62,1082.15c-22.23,0-43.18,8.31-59.52,23.7
					c-17.63,16.61-27.34,39.11-27.34,63.34c0,8.51,3.41,16.41,9.6,22.24c6.19,5.83,14.29,8.78,22.77,8.27l290.91-17.26v-86.42
					l-231.1-13.71C406.17,1082.21,404.39,1082.15,402.62,1082.15z M645.59,1188.62h0.06H645.59z"/>
			</g>
		</g>
	</g>
	<g>
		<g>
			<path class="st12" d="M660.59,1188.16c26.45-0.8,47.48-22.47,47.48-48.93s-21.03-48.13-47.48-48.93l-15-0.45v98.76
				L660.59,1188.16z"/>
		</g>
		<g>
			<path d="M645.59,1195.17c-1.7,0-3.34-0.66-4.56-1.85c-1.27-1.23-1.99-2.93-1.99-4.7v-98.77c0-1.77,0.72-3.47,1.99-4.7
				c1.27-1.23,3-1.86,4.76-1.85l15,0.45c30.18,0.91,53.83,25.28,53.83,55.48c0,30.2-23.65,54.57-53.83,55.48l-15,0.45
				C645.73,1195.17,645.66,1195.17,645.59,1195.17z M652.14,1096.6v85.27l8.25-0.26l0,0c23.06-0.69,41.12-19.3,41.12-42.38
				c0-23.07-18.06-41.68-41.12-42.38L652.14,1096.6z"/>
		</g>
	</g>
	<circle cx="630.48" cy="928.07" r="16.85"/>
	<circle cx="786.84" cy="928.07" r="16.85"/>
	<path d="M708.66,965.27c-23.93,0-33.63-7.8-43.82-18c-2.56-2.56-2.56-6.7,0-9.26c2.56-2.56,6.7-2.56,9.26,0
		c8.81,8.81,15.53,14.16,34.56,14.16c19.5,0,25.26-4.86,34.56-14.16c2.56-2.56,6.7-2.56,9.26,0c2.56,2.56,2.56,6.71,0,9.27
		C741.62,958.14,732.7,965.27,708.66,965.27z"/>
</g>
</svg>
