<?xml version="1.0" encoding="utf-8"?>
<!-- Generator: Adobe Illustrator 27.0.0, SVG Export Plug-In . SVG Version: 6.00 Build 0)  -->
<svg version="1.1" id="Layer_1" xmlns="http://www.w3.org/2000/svg" xmlns:xlink="http://www.w3.org/1999/xlink" x="0px" y="0px"
	 viewBox="0 0 566.93 226.77" style="enable-background:new 0 0 566.93 226.77;" xml:space="preserve">
<style type="text/css">
	.st0{fill:#FDBA58;}
	.st1{fill:#F47932;}
	.st2{fill:#D4D64D;}
	.st3{fill:#1EBEC8;}
	.st4{fill:#7477B8;}
	.st5{fill:#C7A0CB;}
	.st6{fill:#F6ADCD;}
	.st7{fill:#FFFFFF;}
	.st8{fill:#FAA755;}
	.st9{fill:#FAD5E5;}
	.st10{fill:#FEE7DC;}
	.st11{fill:#692E00;}
	.st12{fill:#FEDCBD;}
</style>
<g>
	<g>
		<g>
			<g>
				<path d="M40.39,181.42c-4.84,0.66-7.26,0.99-12.09,1.68c-0.79-5.58-1.59-11.18-2.39-16.76c4.79-0.68,7.19-1.02,11.98-1.67
					c0.09,0.63,0.13,0.95,0.21,1.58c-4.11,0.56-6.17,0.84-10.27,1.42c0.34,2.4,0.51,3.61,0.85,6.01c3.91-0.55,5.87-0.82,9.78-1.36
					c0.09,0.62,0.13,0.94,0.21,1.56c-3.91,0.53-5.86,0.8-9.77,1.35c0.34,2.41,0.51,3.62,0.85,6.04c4.16-0.59,6.25-0.88,10.41-1.44
					C40.26,180.47,40.31,180.78,40.39,181.42z"/>
			</g>
			<g>
				<path d="M56.86,176.04c-0.32-2.22-0.48-3.33-0.8-5.55c-0.41-3.23-0.61-4.84-1.02-8.07c0.68-0.09,1.02-0.13,1.7-0.21
					c0.84,6.72,1.26,10.08,2.1,16.8c-0.41,0.05-0.61,0.08-1.01,0.13c-5.05-4.86-7.59-7.28-12.7-12.1c0.28,1.98,0.42,2.97,0.7,4.96
					c0.45,3.42,0.68,5.12,1.13,8.54c-0.68,0.09-1.01,0.13-1.69,0.22c-0.89-6.71-1.34-10.07-2.23-16.79
					c0.43-0.06,0.64-0.09,1.07-0.14C49.25,168.7,51.8,171.14,56.86,176.04z"/>
			</g>
			<g>
				<path d="M74.81,160.04c0.47,4.11,0.71,6.16,1.18,10.26c0.48,4.21-2.07,7.1-6.1,7.58c-3.96,0.47-7.17-1.76-7.68-5.9
					c0.68-0.08,1.02-0.12,1.7-0.21c0.38,3.12,2.73,4.88,5.79,4.52c3.07-0.36,4.97-2.53,4.59-5.8c-0.4-3.48-0.61-5.22-1.01-8.7
					c-2.5,0.29-3.75,0.44-6.25,0.74c-0.07-0.62-0.11-0.94-0.19-1.56C70.03,160.59,71.63,160.41,74.81,160.04z"/>
			</g>
			<g>
				<path d="M97.62,166.12c0.43,4.41-1.93,8.97-7.66,9.59c-5.75,0.62-9.05-3.34-9.55-7.76c-0.53-4.74,2.15-9.1,7.67-9.68
					C93.85,157.67,97.18,161.62,97.62,166.12z M89.79,174.13c4.62-0.5,6.49-4.23,6.13-7.83c-0.38-3.77-3.02-6.93-7.66-6.44
					c-4.57,0.48-6.64,3.97-6.14,7.92C82.57,171.46,85.17,174.62,89.79,174.13z"/>
			</g>
			<g>
				<path d="M106.93,165.14c1.87-3.59,2.8-5.38,4.69-8.96c0.8-0.08,1.2-0.11,2-0.19c0,0.02,0,0.03,0,0.05
					c-2.29,4.26-3.43,6.39-5.69,10.65c0.26,2.72,0.4,4.07,0.66,6.79c-0.68,0.07-1.01,0.1-1.69,0.16c-0.27-2.72-0.4-4.07-0.67-6.79
					c-3-3.75-4.51-5.62-7.54-9.36c0-0.02,0-0.03-0.01-0.05c0.79-0.08,1.18-0.12,1.98-0.2C103.18,160.41,104.43,161.98,106.93,165.14
					z"/>
			</g>
			<g>
				<path d="M127.93,156.32c-2.41,0.21-3.62,0.31-6.03,0.53c-0.06-0.64-0.08-0.96-0.14-1.59c4.83-0.43,8.93-0.78,13.77-1.17
					c0.05,0.64,0.08,0.96,0.13,1.59c-2.41,0.2-3.62,0.3-6.03,0.5c0.52,6.11,0.78,9.17,1.29,15.28c-0.68,0.06-1.02,0.09-1.69,0.14
					C128.72,165.49,128.46,162.43,127.93,156.32z"/>
			</g>
			<g>
				<path d="M152.81,169.74c-0.22-2.99-0.32-4.49-0.54-7.48c-4.12,0.3-6.18,0.45-10.31,0.78c0.23,2.99,0.35,4.49,0.58,7.48
					c-0.68,0.05-1.02,0.08-1.69,0.13c-0.53-6.75-0.8-10.13-1.34-16.88c0.68-0.05,1.03-0.08,1.71-0.13c0.24,3.13,0.37,4.69,0.61,7.81
					c4.13-0.32,6.19-0.48,10.32-0.78c-0.23-3.13-0.34-4.69-0.57-7.82c0.68-0.05,1.03-0.07,1.71-0.12
					c0.48,6.76,0.73,10.13,1.21,16.89C153.82,169.67,153.49,169.69,152.81,169.74z"/>
			</g>
			<g>
				<path d="M172.56,168.42c-4.86,0.3-7.3,0.46-12.16,0.79c-0.38-5.62-0.77-11.27-1.15-16.9c4.82-0.33,7.23-0.49,12.05-0.78
					c0.04,0.64,0.06,0.96,0.1,1.59c-4.13,0.25-6.2,0.39-10.33,0.67c0.16,2.42,0.24,3.63,0.41,6.06c3.93-0.26,5.9-0.39,9.83-0.64
					c0.04,0.63,0.06,0.94,0.1,1.57c-3.93,0.24-5.9,0.37-9.83,0.63c0.16,2.43,0.25,3.65,0.41,6.08c4.19-0.28,6.28-0.42,10.47-0.67
					C172.5,167.46,172.52,167.78,172.56,168.42z"/>
			</g>
			<g>
				<path d="M195.65,150.19c0.2,4.13,0.3,6.19,0.5,10.32c0.2,4.23-2.53,6.95-6.58,7.16c-3.97,0.21-7.03-2.24-7.26-6.39
					c0.68-0.04,1.02-0.06,1.7-0.09c0.17,3.14,2.39,5.05,5.47,4.89c3.08-0.16,5.12-2.2,4.96-5.48c-0.17-3.5-0.26-5.25-0.43-8.75
					c-2.51,0.12-3.77,0.19-6.28,0.32c-0.03-0.63-0.05-0.94-0.08-1.57C190.85,150.43,192.45,150.35,195.65,150.19z"/>
			</g>
			<g>
				<path d="M217.97,157.77c0.14,4.43-2.52,8.82-8.27,9.06c-5.77,0.24-8.8-3.93-9-8.38c-0.22-4.76,2.74-8.93,8.29-9.15
					C214.78,149.08,217.83,153.25,217.97,157.77z M209.64,165.24c4.63-0.19,6.75-3.79,6.63-7.4c-0.13-3.78-2.55-7.11-7.21-6.93
					c-4.59,0.18-6.87,3.52-6.65,7.5C202.62,162.1,205.01,165.43,209.64,165.24z"/>
			</g>
			<g>
				<path d="M235.94,148.69c0.11,4.13,0.16,6.2,0.27,10.33c0.12,4.57-2.83,6.85-6.52,6.96c-3.69,0.11-6.86-1.98-7.02-6.55
					c-0.14-4.13-0.21-6.2-0.35-10.32c0.69-0.02,1.03-0.03,1.71-0.06c0.14,4.13,0.2,6.19,0.34,10.33c0.1,3.22,2.38,5.13,5.26,5.04
					c2.57-0.08,4.96-1.81,4.86-5.34c-0.11-4.13-0.17-6.2-0.28-10.33C234.91,148.72,235.26,148.71,235.94,148.69z"/>
			</g>
			<g>
				<path d="M256.02,165.21c-0.88,0.01-1.32,0.02-2.21,0.04c-2.29-2.46-3.44-3.69-5.75-6.14c-1.76,0.03-2.64,0.05-4.4,0.09
					c0.06,2.5,0.08,3.74,0.14,6.24c-0.68,0.02-1.02,0.02-1.7,0.04c-0.16-6.77-0.23-10.16-0.39-16.93c2.57-0.06,5.12-0.11,7.69-0.16
					c3.82-0.07,5.69,2.42,5.76,5.27c0.07,2.64-1.45,5.05-5.05,5.29C252.48,161.45,253.67,162.7,256.02,165.21z M243.46,150.11
					c0.07,3,0.1,4.5,0.17,7.49c2.34-0.05,3.51-0.08,5.85-0.12c2.73-0.05,4.02-1.67,3.98-3.79c-0.04-2.13-1.38-3.75-4.03-3.7
					C247.04,150.03,245.85,150.06,243.46,150.11z"/>
			</g>
			<g>
				<path d="M272.52,161.84c-0.05-2.24-0.08-3.37-0.13-5.61c-0.02-3.25-0.03-4.88-0.05-8.13c0.69,0,1.03-0.01,1.71-0.01
					c0.04,6.77,0.05,10.16,0.09,16.93c-0.41,0-0.61,0-1.02,0.01c-4.43-5.42-6.66-8.13-11.15-13.52c0.04,2,0.07,3,0.11,5.01
					c0.04,3.44,0.06,5.17,0.1,8.61c-0.68,0.01-1.02,0.01-1.7,0.02c-0.09-6.77-0.13-10.16-0.22-16.93c0.43-0.01,0.65-0.01,1.08-0.01
					C265.85,153.64,268.08,156.37,272.52,161.84z"/>
			</g>
			<g>
				<path d="M292.23,165.02c-4.87-0.02-7.31-0.03-12.18-0.02c-0.01-5.64-0.02-11.3-0.04-16.93c4.83-0.01,7.24-0.01,12.07,0.01
					c0,0.64,0,0.96-0.01,1.6c-4.14-0.02-6.21-0.02-10.35-0.02c0,2.43,0,3.64,0.01,6.07c3.94,0,5.91,0,9.85,0.01
					c0,0.63,0,0.94-0.01,1.57c-3.94-0.02-5.91-0.02-9.84-0.01c0,2.44,0,3.66,0.01,6.1c4.2,0,6.29,0,10.49,0.02
					C292.23,164.06,292.23,164.38,292.23,165.02z"/>
			</g>
			<g>
				<path d="M302.91,156.63c2.24-3.36,3.36-5.04,5.62-8.4c0.8,0.01,1.2,0.02,2.01,0.03c0,0.02,0,0.03,0,0.05
					c-2.73,3.98-4.09,5.98-6.79,9.98c-0.03,2.73-0.05,4.09-0.07,6.82c-0.68-0.01-1.02-0.01-1.7-0.02c0.03-2.73,0.04-4.09,0.07-6.82
					c-2.58-4.05-3.88-6.08-6.49-10.12c0-0.02,0-0.03,0-0.05c0.79,0.01,1.19,0.01,1.98,0.01
					C299.7,151.52,300.77,153.22,302.91,156.63z"/>
			</g>
			<g>
				<path d="M337.43,157.36c-0.15,4.42-3.09,8.64-8.84,8.5c-5.77-0.14-8.52-4.5-8.43-8.95c0.1-4.76,3.32-8.73,8.87-8.58
					C334.81,148.49,337.59,152.84,337.43,157.36z M328.63,164.27c4.64,0.11,6.98-3.34,7.09-6.95c0.12-3.78-2.08-7.26-6.74-7.39
					c-4.59-0.12-7.09,3.06-7.12,7.05C321.83,160.67,323.99,164.15,328.63,164.27z"/>
			</g>
			<g>
				<path d="M342,165.93c0.22-6.77,0.33-10.16,0.54-16.92c4.69,0.15,7.03,0.23,11.72,0.41c-0.02,0.64-0.04,0.96-0.06,1.6
					c-4-0.15-6-0.23-10-0.36c-0.08,2.57-0.13,3.86-0.21,6.43c3.84,0.13,5.76,0.2,9.6,0.34c-0.02,0.64-0.04,0.96-0.06,1.59
					c-3.84-0.15-5.75-0.22-9.59-0.34c-0.1,2.92-0.14,4.38-0.24,7.3C343.02,165.96,342.68,165.95,342,165.93z"/>
			</g>
			<g>
				<path d="M377.68,167.42c-4.87-0.25-7.3-0.37-12.17-0.59c0.25-5.63,0.51-11.29,0.76-16.92c4.82,0.22,7.24,0.33,12.06,0.58
					c-0.03,0.64-0.05,0.96-0.08,1.6c-4.14-0.21-6.2-0.31-10.34-0.5c-0.11,2.42-0.17,3.64-0.28,6.06c3.94,0.18,5.91,0.28,9.84,0.48
					c-0.03,0.63-0.05,0.94-0.08,1.57c-3.93-0.2-5.9-0.3-9.83-0.48c-0.11,2.44-0.17,3.65-0.28,6.09c4.19,0.19,6.29,0.3,10.48,0.51
					C377.73,166.47,377.71,166.79,377.68,167.42z"/>
			</g>
			<g>
				<path d="M394.36,164.44c-3.94-0.24-5.91-0.35-9.86-0.57c-0.79,1.53-1.18,2.29-1.96,3.82c-0.72-0.04-1.08-0.06-1.79-0.1
					c3.4-6.6,5.12-9.9,8.58-16.48c0.68,0.04,1.03,0.06,1.71,0.1c2.68,6.94,4,10.42,6.62,17.37c-0.72-0.05-1.08-0.07-1.79-0.11
					C395.26,166.85,394.96,166.05,394.36,164.44z M385.27,162.36c3.4,0.19,5.1,0.29,8.51,0.49c-1.47-3.95-2.21-5.92-3.69-9.86
					C388.15,156.73,387.18,158.61,385.27,162.36z"/>
			</g>
			<g>
				<path d="M415.62,169.79c-0.88-0.06-1.32-0.1-2.2-0.16c-2.07-2.65-3.11-3.97-5.19-6.62c-1.76-0.12-2.64-0.18-4.4-0.3
					c-0.16,2.49-0.25,3.74-0.41,6.23c-0.68-0.04-1.02-0.07-1.7-0.11c0.44-6.76,0.66-10.14,1.1-16.9c2.57,0.17,5.11,0.34,7.68,0.52
					c3.81,0.26,5.47,2.91,5.28,5.76c-0.17,2.63-1.89,4.9-5.5,4.82C412.42,165.73,413.49,167.08,415.62,169.79z M404.43,153.64
					c-0.2,2.99-0.3,4.49-0.49,7.48c2.33,0.15,3.5,0.23,5.83,0.39c2.73,0.19,4.15-1.31,4.3-3.43c0.15-2.13-1.05-3.86-3.69-4.04
					C408,153.87,406.81,153.79,404.43,153.64z"/>
			</g>
			<g>
				<path d="M423.05,153.36c-0.46,6.12-0.7,9.18-1.17,15.29c3.77,0.29,5.65,0.44,9.42,0.74c-0.05,0.64-0.08,0.95-0.13,1.59
					c-4.44-0.36-6.66-0.54-11.11-0.87c0.51-6.76,0.76-10.13,1.27-16.89C422.02,153.28,422.36,153.31,423.05,153.36z"/>
			</g>
			<g>
				<path d="M438.91,163.14c2.49-3.19,3.73-4.78,6.24-7.96c0.8,0.07,1.2,0.11,2,0.18c0,0.02,0,0.03,0,0.05
					c-3.02,3.77-4.53,5.66-7.52,9.44c-0.23,2.72-0.35,4.08-0.58,6.8c-0.68-0.06-1.02-0.09-1.69-0.14c0.23-2.72,0.35-4.08,0.58-6.8
					c-2.27-4.23-3.42-6.35-5.72-10.57c0-0.02,0-0.03,0-0.05c0.79,0.06,1.19,0.1,1.98,0.16C436.08,157.8,437.03,159.58,438.91,163.14
					z"/>
			</g>
			<g>
				<path d="M461.98,165.25c2.53-3.16,3.8-4.73,6.34-7.88c0.8,0.08,1.2,0.12,2,0.2c0,0.02,0,0.03-0.01,0.05
					c-3.07,3.73-4.6,5.6-7.65,9.35c-0.27,2.72-0.4,4.07-0.67,6.79c-0.68-0.07-1.01-0.1-1.69-0.17c0.27-2.72,0.4-4.07,0.66-6.79
					c-2.22-4.26-3.34-6.39-5.59-10.65c0-0.02,0-0.03,0-0.05c0.79,0.07,1.18,0.11,1.97,0.19
					C459.22,159.88,460.15,161.67,461.98,165.25z"/>
			</g>
			<g>
				<path d="M484.85,176.16c-4.85-0.54-7.27-0.8-12.12-1.31c0.59-5.61,1.18-11.24,1.76-16.84c4.81,0.5,7.21,0.76,12.02,1.3
					c-0.07,0.64-0.11,0.95-0.18,1.59c-4.12-0.46-6.18-0.68-10.3-1.12c-0.25,2.41-0.38,3.62-0.64,6.04c3.92,0.41,5.89,0.63,9.81,1.06
					c-0.07,0.63-0.1,0.94-0.17,1.57c-3.92-0.44-5.88-0.65-9.8-1.06c-0.26,2.43-0.39,3.64-0.64,6.06c4.18,0.44,6.27,0.67,10.44,1.13
					C484.95,175.21,484.92,175.53,484.85,176.16z"/>
			</g>
			<g>
				<path d="M501.7,174.18c-3.93-0.47-5.89-0.71-9.82-1.16c-0.88,1.48-1.31,2.22-2.18,3.69c-0.72-0.08-1.07-0.12-1.79-0.2
					c3.79-6.39,5.71-9.58,9.56-15.95c0.68,0.08,1.02,0.12,1.7,0.2c2.27,7.09,3.38,10.64,5.59,17.73c-0.71-0.09-1.07-0.13-1.78-0.22
					C502.46,176.63,502.21,175.82,501.7,174.18z M492.73,171.56c3.39,0.39,5.08,0.59,8.47,1c-1.23-4.03-1.85-6.04-3.11-10.07
					C495.95,166.11,494.87,167.93,492.73,171.56z"/>
			</g>
			<g>
				<path d="M522.63,180.78c-0.88-0.12-1.32-0.17-2.19-0.29c-1.91-2.77-2.87-4.15-4.8-6.92c-1.75-0.23-2.63-0.34-4.38-0.56
					c-0.31,2.48-0.47,3.71-0.78,6.19c-0.68-0.08-1.01-0.13-1.69-0.21c0.84-6.72,1.26-10.08,2.1-16.8c2.56,0.32,5.09,0.64,7.64,0.97
					c3.8,0.49,5.29,3.23,4.94,6.06c-0.32,2.62-2.19,4.78-5.79,4.49C519.68,176.54,520.66,177.95,522.63,180.78z M512.4,163.99
					c-0.37,2.98-0.56,4.46-0.94,7.44c2.32,0.29,3.49,0.44,5.81,0.74c2.71,0.35,4.23-1.06,4.51-3.17c0.28-2.11-0.82-3.92-3.45-4.26
					C515.96,164.44,514.77,164.29,512.4,163.99z"/>
			</g>
			<g>
				<path d="M539.47,169.51c-0.77-1.72-2.8-2.56-4.58-2.82c-2.07-0.3-4.87-0.06-5.2,2.41c-0.27,1.97,1.84,2.79,4.42,3.61
					c3.26,1.04,6.55,2.28,6.03,5.83c-0.55,3.77-4.37,4.29-7.43,3.87c-2.84-0.39-5.59-1.82-6.53-4.68c0.63-0.24,0.95-0.35,1.58-0.59
					c0.87,2.31,3.13,3.38,5.17,3.66c2.07,0.29,5.1,0.14,5.5-2.53c0.33-2.26-2.13-3.21-4.71-4.03c-3.12-0.99-6.14-2.13-5.73-5.37
					c0.45-3.5,4.22-4.16,7.09-3.77c2.33,0.32,4.75,1.3,5.93,3.81C540.4,169.16,540.09,169.27,539.47,169.51z"/>
			</g>
		</g>
	</g>
	<g>
		<g>
			<g>
				<g>
					<path class="st0" d="M32.11,122.49l43.09-5.48c4.71-0.6,9.11,2.81,9.71,7.52s-2.81,9.11-7.52,9.71l-51.7,6.58
						c-4.71,0.6-9.11-2.81-9.71-7.52L7.2,64.36c-0.6-4.71,2.81-9.11,7.52-9.71l51.7-6.58c4.71-0.6,9.11,2.81,9.71,7.52
						s-2.81,9.11-7.52,9.71l-43.09,5.48l2.19,17.23l34.47-4.39c4.71-0.6,9.11,2.81,9.71,7.52c0.6,4.71-2.81,9.11-7.52,9.71
						l-34.47,4.39L32.11,122.49z"/>
				</g>
			</g>
		</g>
		<g>
			<g>
				<g>
					<path class="st1" d="M163.98,61.01c0.38-4.74,4.61-8.35,9.35-7.97c4.73,0.38,8.35,4.61,7.97,9.35l-5.52,69.28
						c-0.38,4.74-4.61,8.35-9.35,7.97c-2.16-0.17-4.4-1.17-5.88-3.06l-50.18-58.87l-3.86,48.44c-0.38,4.74-4.61,8.35-9.35,7.97
						c-4.73-0.38-8.35-4.61-7.97-9.35l5.52-69.28c0.38-4.74,4.61-8.35,9.35-7.97c2.3,0.18,4.39,1.3,5.88,3.06l50.18,58.87
						L163.98,61.01z"/>
				</g>
			</g>
		</g>
		<g>
			<g>
				<g>
					<path class="st2" d="M198,88.04c-4.75,0-8.69-3.94-8.69-8.69s3.93-8.69,8.69-8.69h26.06c4.75,0,8.69,3.94,8.69,8.69
						s-3.94,8.69-8.69,8.69H198z"/>
				</g>
			</g>
		</g>
		<g>
			<g>
				<g>
					<path class="st3" d="M235.55,98.29c4.7-0.7,9.17,2.61,9.87,7.31c1.42,9.53,10.21,16.04,19.74,14.63
						c9.53-1.42,16.04-10.21,14.62-19.74l-6.4-42.96c-0.7-4.7,2.61-9.17,7.31-9.87s9.17,2.61,9.87,7.31l6.4,42.96
						c2.82,18.93-10.32,36.67-29.25,39.49c-18.93,2.82-36.67-10.32-39.49-29.25C227.54,103.46,230.85,98.99,235.55,98.29z"/>
				</g>
			</g>
		</g>
		<g>
			<g>
				<g>
					<path class="st4" d="M346.73,48.04c24.02,0,43.43,19.41,43.43,43.43s-19.41,43.43-43.43,43.43s-43.43-19.41-43.43-43.43
						S322.7,48.04,346.73,48.04z M346.73,117.53c14.39,0,26.06-11.67,26.06-26.06s-11.67-26.06-26.06-26.06
						s-26.06,11.67-26.06,26.06S332.34,117.53,346.73,117.53z"/>
				</g>
			</g>
		</g>
		<g>
			<g>
				<g>
					<path class="st5" d="M416.62,114.73l43.41-1.59c4.75-0.17,8.83,3.61,9,8.36s-3.62,8.83-8.36,9l-52.09,1.91
						c-4.75,0.17-8.83-3.61-9-8.36l-2.55-69.45c-0.17-4.75,3.61-8.83,8.36-9l52.09-1.91c4.75-0.17,8.83,3.61,9,8.36
						c0.17,4.75-3.62,8.83-8.36,9l-43.41,1.59L415.35,80l34.72-1.28c4.75-0.17,8.83,3.61,9,8.36c0.17,4.75-3.62,8.83-8.36,9
						l-34.72,1.28L416.62,114.73z"/>
				</g>
			</g>
		</g>
		<g>
			<g>
				<g>
					<path class="st6" d="M500.8,124.37l3.2-31.05l-28.71-35.29c-1.45-1.79-2.18-4.04-1.94-6.34c0.47-4.59,4.94-8.22,9.53-7.75
						c2.3,0.24,4.36,1.4,5.81,3.19l25.56,31.42l31.42-25.56c1.79-1.45,4.05-2.18,6.34-1.94c4.59,0.47,8.22,4.94,7.75,9.53
						c-0.24,2.3-1.4,4.36-3.19,5.81l-35.29,28.71l-3.2,31.05c-0.49,4.73-4.81,8.24-9.53,7.75
						C503.83,133.41,500.31,129.1,500.8,124.37z"/>
				</g>
			</g>
		</g>
	</g>
</g>
</svg>
