<?xml version="1.0" standalone="no"?>
<!DOCTYPE svg PUBLIC "-//W3C//DTD SVG 20010904//EN"
 "http://www.w3.org/TR/2001/REC-SVG-20010904/DTD/svg10.dtd">
<svg version="1.0" xmlns="http://www.w3.org/2000/svg"
viewBox="0 0 200 49.7"
 preserveAspectRatio="xMidYMid meet">

<g transform="translate(0.000000,61.000000) scale(0.100000,-0.100000)"
style="fill: current;" stroke="none">
<path d="M75 528 c-3 -8 -4 -103 -3 -213 l3 -200 108 -3 107 -3 0 36 0 35 -70
0 -70 0 0 54 0 55 53 3 c50 3 52 4 52 33 0 29 -2 30 -52 33 l-53 3 0 55 0 54
71 0 70 0 -3 33 -3 32 -103 3 c-77 2 -104 0 -107 -10z"/>
<path d="M340 294 l0 -185 33 3 32 3 5 93 5 93 47 -95 c45 -89 50 -96 78 -96
l30 0 0 185 0 185 -35 0 -35 0 -1 -102 0 -103 -52 103 c-47 92 -54 102 -79
102 l-28 0 0 -186z"/>
<path d="M918 333 l-3 -148 -30 0 c-27 0 -30 4 -33 33 -3 29 -6 32 -38 32
l-34 0 0 -48 c0 -70 26 -92 108 -92 100 0 102 5 102 205 l0 165 -35 0 -34 0
-3 -147z"/>
<path d="M1067 462 c-14 -16 -17 -43 -17 -165 0 -179 4 -187 100 -187 51 0 65
4 85 25 24 23 25 29 25 165 0 174 -4 180 -108 180 -54 0 -72 -4 -85 -18z m123
-167 l0 -115 -35 0 -35 0 0 115 0 115 35 0 35 0 0 -115z"/>
<path d="M1310 295 l0 -185 105 0 105 0 0 35 0 35 -70 0 -70 0 0 40 0 40 55 0
55 0 0 35 0 35 -55 0 -55 0 0 40 0 40 70 0 70 0 0 35 0 35 -105 0 -105 0 0
-185z"/>
<path d="M1560 474 c0 -3 23 -57 50 -119 44 -98 50 -121 50 -179 l0 -66 35 0
35 0 0 71 c0 60 6 84 36 152 20 45 43 97 50 115 l14 32 -38 0 c-37 0 -38 -1
-68 -71 l-31 -70 -31 70 c-31 68 -33 71 -67 71 -19 0 -35 -3 -35 -6z"/>
<path d="M627 334 c-4 -4 -7 -20 -7 -36 0 -27 1 -28 56 -28 l55 0 -3 33 c-3
30 -5 32 -48 35 -25 2 -49 0 -53 -4z"/>
<path d="M50 55 l0 -25 890 0 890 0 0 25 0 25 -890 0 -890 0 0 -25z"/>
</g>
</svg>
