<?xml version="1.0" standalone="no"?>
<!DOCTYPE svg PUBLIC "-//W3C//DTD SVG 20010904//EN"
 "http://www.w3.org/TR/2001/REC-SVG-20010904/DTD/svg10.dtd">
<svg version="1.0" xmlns="http://www.w3.org/2000/svg"
viewBox="0 0 180 180"
 preserveAspectRatio="xMidYMid meet">

<g transform="translate(0.000000,191.000000) scale(0.100000,-0.100000)"
style="fill: current;" stroke="none">
<path d="M575 1864 c-70 -17 -245 -99 -245 -115 0 -7 20 -39 44 -74 l45 -62
78 39 c174 86 360 84 538 -5 40 -19 88 -58 143 -113 46 -46 85 -84 88 -84 2 0
34 20 70 44 l65 43 -39 49 c-104 132 -250 230 -403 273 -91 25 -288 28 -384 5z"/>
<path d="M150 1582 c-54 -72 -115 -200 -135 -283 -11 -49 -15 -130 -15 -346
l0 -283 79 0 79 0 5 278 c3 226 7 287 22 332 23 72 65 155 104 204 25 32 29
42 19 51 -7 7 -36 33 -64 58 l-51 47 -43 -58z"/>
<path d="M344 1485 c-12 -30 17 -155 35 -155 3 0 16 -8 29 -18 l22 -17 -20
-42 c-25 -52 -25 -110 -1 -142 19 -24 19 -25 -7 -63 -38 -59 -49 -201 -24
-332 17 -85 17 -99 5 -112 -18 -18 -10 -62 13 -71 8 -3 37 9 65 26 28 17 58
31 68 31 27 0 72 39 87 76 17 40 17 44 4 44 -6 0 -14 -10 -19 -22 l-8 -22 -12
22 c-10 19 -8 23 19 37 30 15 45 48 38 82 -5 26 -85 24 -105 -2 -12 -18 -13
-18 -13 2 0 27 -23 45 -52 41 -21 -3 -23 -8 -23 -54 0 -48 -16 -84 -36 -84
-16 0 -10 49 17 140 31 109 20 147 -13 45 l-23 -70 4 89 c3 68 8 95 24 115 25
34 42 33 62 -4 37 -66 105 -72 134 -11 9 20 22 38 28 42 13 8 70 -54 62 -67
-3 -5 2 -22 11 -38 20 -39 19 -70 -4 -130 -13 -34 -15 -54 -8 -66 6 -12 5 -22
-7 -33 -14 -14 -16 -14 -22 2 -4 9 -2 42 4 72 10 47 9 61 -10 111 -26 69 -24
67 -36 59 -6 -4 -2 -27 10 -58 18 -47 19 -61 10 -118 -10 -60 -10 -66 10 -87
18 -20 20 -27 10 -48 -15 -33 -15 -142 -1 -184 6 -18 9 -34 6 -37 -12 -13
-119 19 -157 47 -50 36 -68 29 -25 -9 28 -26 30 -31 27 -93 l-4 -67 -111 -4
c-62 -2 -122 -10 -134 -16 -19 -11 -63 -70 -63 -86 0 -3 132 -6 294 -6 l294 0
11 28 c9 22 9 40 -4 88 -14 55 -14 60 2 72 28 20 46 14 93 -34 78 -80 213
-132 388 -150 138 -15 45 -24 -265 -26 l-328 -3 -3 -82 -3 -83 417 0 417 0 -5
116 c-3 93 -8 119 -21 129 -9 6 -65 19 -124 29 -194 32 -315 82 -347 145 -14
25 -13 32 11 82 20 41 27 70 27 119 1 110 -48 179 -197 281 -100 69 -162 122
-178 151 -8 14 -5 25 11 46 26 33 21 74 -19 148 l-27 51 38 27 c40 29 52 63
46 127 -2 28 -7 35 -30 37 -27 3 -96 -26 -115 -50 -7 -7 -17 -35 -24 -61 -6
-26 -17 -46 -23 -44 -6 2 -26 29 -44 61 -19 31 -48 66 -65 77 -38 23 -85 25
-93 4z m72 -21 c22 -11 44 -35 65 -70 60 -105 79 -109 109 -19 19 57 27 68 61
85 21 11 43 20 49 20 5 0 10 -21 10 -47 0 -34 -6 -53 -22 -70 -30 -32 -38 -29
-38 17 0 26 6 42 16 48 12 7 13 11 5 16 -21 13 -40 -14 -46 -68 -6 -47 -3 -59
29 -120 45 -85 46 -118 5 -157 -17 -16 -35 -29 -39 -29 -4 0 -13 -13 -18 -29
-20 -57 -81 -62 -98 -9 -3 13 -26 44 -50 70 -26 27 -44 57 -44 70 0 13 13 50
29 84 24 50 28 69 23 113 -4 50 -7 55 -50 82 -51 32 -49 38 4 13z m-13 -35
c30 -16 37 -28 37 -66 0 -62 -56 -27 -67 41 -6 39 -3 42 30 25z m558 -621 c83
-81 103 -180 55 -283 -14 -32 -26 -67 -26 -78 0 -11 20 -39 44 -62 65 -62 206
-111 378 -131 33 -4 63 -13 70 -22 12 -14 -1 -15 -117 -9 -225 12 -373 63
-460 159 l-43 48 -38 -12 c-54 -19 -60 -34 -43 -106 23 -92 23 -92 -141 -92
-118 0 -140 2 -140 15 0 8 -4 15 -10 15 -5 0 -10 -7 -10 -15 0 -10 -10 -15
-32 -15 l-33 1 33 29 c32 30 33 30 154 30 l121 0 -7 70 c-3 38 -13 95 -21 127
-26 101 -15 174 34 217 35 31 76 25 120 -18 25 -25 41 -34 46 -26 11 17 -61
78 -101 86 -19 3 -38 4 -41 0 -3 -3 -12 3 -20 14 -12 16 -11 27 3 70 11 34 15
67 11 100 l-6 49 89 -60 c50 -34 108 -79 131 -101z m-466 -28 c0 -56 25 -67
45 -20 13 32 56 58 71 43 16 -16 -3 -52 -34 -64 -18 -7 -33 -14 -35 -15 -2 -1
4 -16 13 -34 21 -41 12 -67 -28 -75 -18 -4 -49 -18 -70 -32 -20 -14 -40 -23
-43 -20 -11 10 19 132 37 153 16 16 18 29 13 68 -6 44 -5 48 12 44 15 -3 19
-12 19 -48z m112 -364 c1 -1 3 -26 5 -56 l3 -55 -35 3 c-19 2 -36 5 -38 7 -1
1 1 28 4 59 7 56 8 57 33 51 14 -4 27 -8 28 -9z m83 -61 c0 -52 -1 -55 -25
-55 -24 0 -25 3 -25 55 0 52 1 55 25 55 24 0 25 -3 25 -55z m-273 -100 c-19
-29 -28 -34 -59 -35 -27 0 -38 4 -38 15 0 8 -7 15 -15 15 -8 0 -15 -7 -15 -15
0 -8 -9 -15 -20 -15 -25 0 -25 12 0 35 21 19 71 32 132 34 l37 1 -22 -35z"/>
<path d="M457 1222 c-10 -14 6 -62 19 -62 9 0 14 12 14 35 0 24 -5 35 -14 35
-8 0 -17 -3 -19 -8z"/>
<path d="M610 1196 c0 -25 4 -36 15 -36 9 0 15 9 15 25 0 14 0 28 1 33 0 4 -7
8 -15 10 -12 3 -16 -5 -16 -32z"/>
<path d="M520 1066 c0 -7 7 -19 15 -26 12 -10 18 -10 30 0 25 21 18 40 -15 40
-19 0 -30 -5 -30 -14z"/>
<path d="M470 655 c0 -8 5 -15 10 -15 6 0 10 7 10 15 0 8 -4 15 -10 15 -5 0
-10 -7 -10 -15z"/>
<path d="M1390 1354 c-36 -14 -66 -27 -68 -29 -2 -1 4 -30 12 -63 13 -50 16
-132 16 -476 l0 -416 85 0 85 0 0 414 c0 235 -4 436 -10 466 -17 90 -30 130
-43 129 -7 0 -41 -12 -77 -25z"/>
<path d="M0 255 l0 -245 260 0 260 0 0 85 0 85 -180 0 -180 0 0 160 0 160 -80
0 -80 0 0 -245z"/>
</g>
</svg>
